<svg width="1216" height="344" fill="none" xmlns="http://www.w3.org/2000/svg"><rect x="341" width="534" height="344" rx="8" fill="#FEF9E7"/><g filter="url(#a)"><rect x="369" y="58" width="227" height="164" rx="4" fill="#1A1A1A"/><rect x="369" y="58" width="227" height="164" rx="4" fill="url(#b)" fill-opacity=".16"/></g><path fill-rule="evenodd" clip-rule="evenodd" d="M433.072 84.095a.856.856 0 0 1 .382 1.162c-.436.837-.672 2.04-.762 3.274-.089 1.22-.03 2.373.061 3.052a.865.865 0 0 1-.755.969.876.876 0 0 1-.985-.743c-.107-.799-.169-2.07-.072-3.402.096-1.316.354-2.792.95-3.937a.885.885 0 0 1 1.181-.375Z" fill="#FFE100"/><path fill-rule="evenodd" clip-rule="evenodd" d="M425.619 93.781c2.131-4.52 7.317-3.412 9.766-1.784l-6.73 9.794-.773-.514c-.98 1.119-2.983 1.966-3.862 2.25.089 1.257 1.162 2.226 1.687 2.554l-2.211 3.218c-2.581-1.717-3.335-4.172-3.389-5.184l-.958-.052c-1.691 3.772.961 6.695 2.596 7.783l-2.855 4.156.496-3.902c-3.219-2.714-2.643-6.815-1.953-8.527-2.218-.433-6.067-3.598-5.344-6.288 1.259-4.684 9.521-4.607 13.53-3.504Zm2.365 3.965c.502-2.448-4.837-2.848-7.575-2.741-1.741.036-3.084.236-4.088.549.447 1.365 1.483 2.044 1.986 2.22 3.175-.71 7.296-.383 9.677-.028Zm-.2.647c-1.66-.212-4.134-.267-5.418-.264-1.743 1.17-1.967 3.145-1.818 4.384 2.361.04 6.187-1.578 7.236-4.12Zm-8.032 4.041c-.319-1.795.706-3.489 1.336-4.178-3.229.12-5.264 1.022-6.258 1.73 1.064 1.144 2.891 2.123 4.922 2.448Zm-5.487-3.19c.798-.48 2.228-.92 3.006-1.118-1.125-.827-1.616-1.69-1.79-2.25-1.759.832-1.959 2.134-1.216 3.369ZM443.698 91.16a.888.888 0 0 0-1.238.085c-.628.71-1.673 1.373-2.805 1.916-1.117.535-2.227.911-2.901 1.08a.862.862 0 0 0-.633 1.051.88.88 0 0 0 1.068.622c.793-.2 2.015-.616 3.236-1.201 1.205-.579 2.501-1.364 3.359-2.335a.853.853 0 0 0-.086-1.218Z" fill="#FFE100"/><path fill-rule="evenodd" clip-rule="evenodd" d="M437.342 101.578c3.471-3.631.493-7.952-1.956-9.58l-6.73 9.793.772.513c-.69 1.313-.742 3.457-.682 4.365-1.219.387-2.533-.231-3.038-.588l-2.211 3.217c2.581 1.717 5.177 1.49 6.153 1.162l.405.856c-2.927 2.949-6.673 1.617-8.309.529l-2.855 4.156 3.495-1.907c3.76 1.927 7.413-.127 8.77-1.395 1.236 1.864 5.656 4.198 7.924 2.536 3.949-2.895.797-10.409-1.738-13.657Zm-4.621-.683c2.123-1.37 4.489 3.355 5.409 5.895.614 1.602.926 2.903 1.005 3.936-1.454.101-2.48-.592-2.834-.986-.513-3.162-2.358-6.803-3.58-8.845Zm-.535.424c.818 1.437 1.792 3.675 2.267 4.848-.454 2.028-2.233 2.968-3.457 3.294-.918-2.141-.817-6.237 1.19-8.142Zm-.819 8.839c1.812-.378 3.028-1.945 3.444-2.776 1.088 2.992.997 5.185.7 6.357-1.476-.545-3.08-1.848-4.144-3.581Zm5.053 3.821c.155-.908.039-2.377-.065-3.161 1.2.718 2.197.845 2.789.795-.129 1.916-1.283 2.584-2.724 2.366Z" fill="#FFE100"/><g filter="url(#c)"><rect x="620" y="58" width="227" height="164" rx="4" fill="#1A1A1A"/><rect x="620" y="58" width="227" height="164" rx="4" fill="url(#d)" fill-opacity=".16"/></g><path fill-rule="evenodd" clip-rule="evenodd" d="M679.072 84.095a.856.856 0 0 1 .382 1.162c-.436.837-.672 2.04-.762 3.274-.089 1.22-.03 2.373.061 3.052a.865.865 0 0 1-.755.969.876.876 0 0 1-.985-.743c-.107-.799-.169-2.07-.072-3.402.096-1.316.354-2.792.95-3.937a.885.885 0 0 1 1.181-.375Z" fill="#FFE100"/><path fill-rule="evenodd" clip-rule="evenodd" d="M671.619 93.781c2.131-4.52 7.317-3.412 9.766-1.784l-6.73 9.794-.773-.514c-.98 1.119-2.983 1.966-3.862 2.25.089 1.257 1.162 2.226 1.687 2.554l-2.211 3.218c-2.581-1.717-3.335-4.172-3.389-5.184l-.958-.052c-1.691 3.772.961 6.695 2.596 7.783l-2.855 4.156.496-3.902c-3.219-2.714-2.643-6.815-1.953-8.527-2.218-.433-6.067-3.598-5.344-6.288 1.259-4.684 9.521-4.607 13.53-3.504Zm2.365 3.965c.502-2.448-4.837-2.848-7.575-2.741-1.741.036-3.084.236-4.088.549.447 1.365 1.483 2.044 1.986 2.22 3.175-.71 7.296-.383 9.677-.028Zm-.2.647c-1.66-.212-4.134-.267-5.418-.264-1.743 1.17-1.967 3.145-1.818 4.384 2.361.04 6.187-1.578 7.236-4.12Zm-8.032 4.041c-.319-1.795.706-3.489 1.336-4.178-3.229.12-5.264 1.022-6.258 1.73 1.064 1.144 2.891 2.123 4.922 2.448Zm-5.487-3.19c.798-.48 2.228-.92 3.006-1.118-1.125-.827-1.616-1.69-1.79-2.25-1.759.832-1.959 2.134-1.216 3.369ZM689.698 91.16a.888.888 0 0 0-1.238.085c-.628.71-1.673 1.373-2.805 1.916-1.117.535-2.227.911-2.901 1.08a.862.862 0 0 0-.633 1.051.88.88 0 0 0 1.068.622c.793-.2 2.015-.616 3.236-1.201 1.205-.579 2.501-1.364 3.359-2.335a.853.853 0 0 0-.086-1.218Z" fill="#FFE100"/><path fill-rule="evenodd" clip-rule="evenodd" d="M683.342 101.578c3.471-3.631.493-7.952-1.956-9.58l-6.73 9.793.772.513c-.69 1.313-.742 3.457-.682 4.365-1.219.387-2.533-.231-3.038-.588l-2.211 3.217c2.581 1.717 5.177 1.49 6.153 1.162l.405.856c-2.927 2.949-6.673 1.617-8.309.529l-2.855 4.156 3.495-1.907c3.76 1.927 7.413-.127 8.77-1.395 1.236 1.864 5.656 4.198 7.924 2.536 3.949-2.895.797-10.409-1.738-13.657Zm-4.621-.683c2.123-1.37 4.489 3.355 5.409 5.895.614 1.602.926 2.903 1.005 3.936-1.454.101-2.48-.592-2.834-.986-.513-3.162-2.358-6.803-3.58-8.845Zm-.535.424c.818 1.437 1.792 3.675 2.267 4.848-.454 2.028-2.233 2.968-3.457 3.294-.918-2.141-.817-6.237 1.19-8.142Zm-.819 8.839c1.812-.378 3.028-1.945 3.444-2.776 1.088 2.992.997 5.185.7 6.357-1.476-.545-3.08-1.848-4.144-3.581Zm5.053 3.821c.155-.908.039-2.377-.065-3.161 1.2.718 2.197.845 2.789.795-.129 1.916-1.283 2.584-2.724 2.366Z" fill="#FFE100"/><path opacity=".2" d="M708 86v28" stroke="#F6F6F6" stroke-linecap="round"/><path d="M732.048 106c3.852 0 6.498-2.214 6.498-6.192v-.396c0-3.996-2.646-6.192-6.498-6.192h-4.716V106h4.716Zm-2.07-10.584h1.89c2.412 0 3.906 1.152 3.906 3.996v.396c0 2.844-1.494 3.996-3.888 3.996h-1.908v-8.388Zm14.89 10.818c2.394 0 4.014-1.188 4.464-3.06h-2.502c-.234.648-.846 1.134-1.962 1.134-1.386 0-2.196-.792-2.304-2.412h6.822c.162-3.24-1.386-5.418-4.518-5.418-2.916 0-4.734 1.926-4.734 4.752v.234c0 2.862 1.782 4.77 4.734 4.77Zm-2.268-5.922c.234-1.314.972-1.962 2.25-1.962 1.224 0 1.89.756 2.016 1.962H742.6ZM756.366 106l3.384-9.288h-2.556l-2.16 6.768-2.16-6.768h-2.682l3.402 9.288h2.772Zm13.898 0V95.434h3.618V93.22h-9.918v2.214h3.618V106h2.682Zm8.267.234c2.88 0 4.77-1.944 4.77-4.77v-.216c0-2.826-1.89-4.77-4.77-4.77s-4.77 1.944-4.77 4.752v.234c0 2.826 1.89 4.77 4.77 4.77Zm0-1.962c-1.476 0-2.214-.99-2.214-2.808v-.234c0-1.8.738-2.79 2.214-2.79s2.214.99 2.214 2.808v.216c0 1.818-.738 2.808-2.214 2.808Zm11.127 1.962c2.88 0 4.77-1.944 4.77-4.77v-.216c0-2.826-1.89-4.77-4.77-4.77s-4.77 1.944-4.77 4.752v.234c0 2.826 1.89 4.77 4.77 4.77Zm0-1.962c-1.476 0-2.214-.99-2.214-2.808v-.234c0-1.8.738-2.79 2.214-2.79s2.214.99 2.214 2.808v.216c0 1.818-.738 2.808-2.214 2.808Zm9.327 1.728V92.464h-2.52V106h2.52Zm6.197.234c2.484 0 4.068-1.224 4.068-3.06 0-1.62-1.062-2.43-3.564-2.826-1.602-.252-2.07-.558-2.07-1.134 0-.612.558-.972 1.44-.972.918 0 1.548.432 1.656 1.224h2.376c-.18-1.89-1.62-2.988-4.014-2.988-2.268 0-3.87 1.152-3.87 2.898 0 1.674 1.098 2.43 3.492 2.826 1.656.288 2.088.63 2.088 1.206 0 .666-.648 1.026-1.602 1.026-1.026 0-1.728-.468-1.872-1.368h-2.394c.162 1.998 1.656 3.168 4.266 3.168Z" fill="#fff"/><path opacity=".7" fill-rule="evenodd" clip-rule="evenodd" d="M734.114 146.296a2.245 2.245 0 0 0-2.232 0l-13.756 7.885a2.244 2.244 0 0 0-1.128 1.947v15.742c0 .804.43 1.547 1.128 1.947l13.756 7.885a2.245 2.245 0 0 0 2.232 0l13.756-7.885a2.244 2.244 0 0 0 1.128-1.947v-15.742c0-.804-.43-1.547-1.128-1.947l-13.756-7.885Zm-1.103 28.271c3.978 0 7.454-2.102 9.328-5.233l-4.668-2.66a5.42 5.42 0 0 1-4.662 2.614c-2.982 0-5.4-2.364-5.4-5.281 0-2.916 2.418-5.28 5.4-5.28a5.421 5.421 0 0 1 4.669 2.625l4.668-2.662c-1.873-3.137-5.352-5.244-9.335-5.244-5.965 0-10.801 4.728-10.801 10.56 0 5.833 4.836 10.561 10.801 10.561Zm13.926-12.227H745.8v1.115h-1.137v1.112h1.137v1.109h1.137v-1.109h1.137v-1.112h-1.137v-1.115Zm-4.551 0h-1.137v1.115h-1.136v1.112h1.136v1.109h1.137v-1.109h1.137v-1.112h-1.137v-1.115ZM654.788 145.996a.788.788 0 0 0-.788.788v30.548a67.933 67.933 0 0 0 6.416 4.664h15c.259-.252.513-.521.762-.809l-.866-.832h1.531c.224-.302.443-.622.654-.959l-.813-.783h1.275c.19-.345.374-.706.55-1.084l-.708-.681h1.01c.16-.382.313-.78.458-1.194l-.542-.521h.716c.118-.365.229-.742.334-1.132l-.465-.446h.58c.422-1.69.721-3.606.861-5.773 0-10.196-7.569-13.673-11.227-13.673-3.659 0-7.361 1.466-7.361 5.949 4.094 2.22 7.167 6.02 7.167 7.724 0 .39-.095.681-.176.926-.058.179-.109.333-.109.484 0 .038-.005.077-.01.118-.045.349-.116.904 2.505 3.124-1.249 1.602-2.042 2.29-3.016 2.155l-.768.171.183-.338a4.168 4.168 0 0 1-.404-.199l-.253.079-.001.001c-.462.145-.588.184-.847.174-.241-.009.374-.475.711-.707l-2.518-2.979c-.069-.065-.225-.197-.302-.197-.096 0-.759.417-.759 1.391 0 .779.707 2.651 1.061 3.489.273.513.356 1.539-1.501 1.539-2.321 0-2.166-.981-1.997-1.539.169-.558.549-2.117.031-3.337-.341-.726-2.043-1.721-2.851-2.128-.344-.178-1.031-.745-1.031-1.581 0-.536.078-1.045.154-1.541.072-.472.143-.931.143-1.392 0-.412-.106-.981-.226-1.623-.155-.833-.332-1.788-.332-2.684 0-.924.201-4.453 2.72-7.239l1.117-2.573.194 1.37c.176-.133.359-.263.551-.389l.954-2.2.217 1.534c.178-.087.362-.17.551-.25l.905-1.966.22 1.556c.317-.099.647-.189.992-.269l.95-1.578.193 1.36c.216-.033.437-.063.663-.088l.95-1.023.132.932c.248-.014.502-.024.762-.029l.563-.606.085.604c6.991.093 11.702 4.811 14.262 8.975v-12.525a.788.788 0 0 0-.788-.788h-28.424ZM797.477 147.284a.539.539 0 0 0-.948 0l-.612 1.131a.54.54 0 0 1-.89.087l-.82-.99a.54.54 0 0 0-.931.186l-.379 1.228a.536.536 0 0 1-.298.335l-.128.038a.535.535 0 0 1-.43-.113l-.998-.811a.539.539 0 0 0-.876.363l-.132 1.279a.536.536 0 0 1-.183.352l-.214.113a.532.532 0 0 1-.392-.044l-1.137-.6a.539.539 0 0 0-.789.527l.12 1.28a.532.532 0 0 1-.089.351c-.082.065-.163.132-.243.198a.536.536 0 0 1-.359.018l-1.232-.367a.54.54 0 0 0-.671.671l.367 1.231a.532.532 0 0 1-.005.326c-.084.099-.167.199-.249.3a.538.538 0 0 1-.313.066l-1.28-.12a.539.539 0 0 0-.527.789l.6 1.136a.546.546 0 0 1 .063.28c-.076.135-.15.271-.222.409a.53.53 0 0 1-.262.1l-1.279.132a.54.54 0 0 0-.363.877l.811.997c.057.07.093.149.109.229-.054.166-.105.333-.154.501a.53.53 0 0 1-.215.126l-1.228.379a.54.54 0 0 0-.186.931l.99.82a.534.534 0 0 1 .144.183c-.022.185-.041.371-.057.557a.541.541 0 0 1-.174.15l-1.131.611a.54.54 0 0 0 0 .949l1.131.611c.065.036.12.082.163.135.014.2.033.399.055.596a.518.518 0 0 1-.131.159l-.99.82a.54.54 0 0 0 .186.931l1.228.379a.527.527 0 0 1 .167.085c.056.205.118.409.183.612a.563.563 0 0 1-.09.159l-.811.997a.54.54 0 0 0 .363.877l1.279.132c.06.006.115.022.166.045.1.196.203.391.311.582a.558.558 0 0 1-.056.162l-.6 1.136c-.201.379.1.829.527.789l1.28-.12a.565.565 0 0 1 .165.01c.138.176.28.349.425.519a.538.538 0 0 1-.023.162l-.367 1.232a.54.54 0 0 0 .671.671l1.232-.367a.538.538 0 0 1 .157-.023c.172.149.348.293.526.434.01.05.013.102.008.156l-.12 1.28c-.04.427.41.728.789.527l1.137-.6a.53.53 0 0 1 .142-.052c.201.114.405.223.611.327.018.046.03.094.036.146l.132 1.279a.539.539 0 0 0 .876.363l.998-.811a.616.616 0 0 1 .129-.078c.219.072.44.139.663.201a.556.556 0 0 1 .064.137l.379 1.228a.54.54 0 0 0 .931.186l.82-.99a.542.542 0 0 1 .119-.107c.223.026.447.048.674.064a.58.58 0 0 1 .097.13l.612 1.131a.539.539 0 0 0 .948 0l.612-1.131a.536.536 0 0 1 .103-.135c.221-.017.44-.039.658-.066.047.03.091.068.129.114l.82.99a.54.54 0 0 0 .931-.186l.379-1.228a.534.534 0 0 1 .08-.16c.208-.059.414-.122.618-.189.055.02.108.049.158.089l.997.811a.54.54 0 0 0 .877-.363l.132-1.279a.553.553 0 0 1 .055-.189c.183-.094.363-.191.541-.292a.54.54 0 0 1 .193.06l1.137.6c.379.201.829-.1.789-.527l-.12-1.28a.522.522 0 0 1 .025-.221c.148-.119.295-.24.439-.364a.536.536 0 0 1 .227.018l1.232.367a.54.54 0 0 0 .671-.671l-.367-1.232a.526.526 0 0 1-.015-.248c.113-.134.223-.269.332-.407a.531.531 0 0 1 .25-.036l1.28.12c.427.04.728-.41.527-.789l-.6-1.136a.533.533 0 0 1-.063-.265c.077-.141.152-.283.226-.427a.531.531 0 0 1 .258-.097l1.279-.132a.54.54 0 0 0 .363-.877l-.811-.997a.537.537 0 0 1-.117-.278c.042-.135.083-.271.121-.408a.537.537 0 0 1 .256-.17l1.228-.379a.54.54 0 0 0 .185-.931l-.989-.82a.533.533 0 0 1-.182-.293c.012-.113.022-.226.032-.339a.532.532 0 0 1 .237-.258l1.131-.611a.54.54 0 0 0 0-.949l-1.131-.611a.534.534 0 0 1-.252-.296l-.026-.252a.532.532 0 0 1 .191-.342l.989-.82a.54.54 0 0 0-.185-.931l-1.228-.379a.534.534 0 0 1-.325-.277 5.203 5.203 0 0 0-.051-.165.539.539 0 0 1 .116-.414l.811-.997a.54.54 0 0 0-.363-.877l-1.279-.132a.54.54 0 0 1-.421-.789l.6-1.136a.539.539 0 0 0-.527-.789l-1.28.12a.54.54 0 0 1-.567-.692l.367-1.231a.54.54 0 0 0-.671-.671l-1.232.367a.54.54 0 0 1-.691-.567l.12-1.28a.539.539 0 0 0-.789-.527l-1.137.6a.54.54 0 0 1-.789-.421l-.132-1.279a.54.54 0 0 0-.877-.363l-.997.811a.54.54 0 0 1-.856-.26l-.379-1.228a.54.54 0 0 0-.931-.186l-.82.99a.54.54 0 0 1-.89-.087l-.612-1.131Zm4.586 28.111a12.421 12.421 0 0 1-5.061 1.07c-1.905 0-3.71-.427-5.325-1.191l-.638-3.262-3.051.597a12.566 12.566 0 0 1-1.044-1.246h10.245c.081 0 .101-.067.101-.101v-3.647c0-.081-.067-.101-.101-.101h-3.073V165.2h3.242c1.351 0 1.914 1.284 2.026 1.925.017.045.122.507.406 1.993.283 1.485 1.367 2.228 1.891 2.228h5.392c-.336.459-.702.894-1.095 1.303l-3.253-.637-.662 3.383Zm7.371-10.516h-1.336c-.149 0-.175.136-.169.203v1.081c0 .337-.405 1.317-1.638 1.317-.986 0-1.289-.586-1.317-.878-.034-.676-.473-2.27-1.959-3.242.182-.142.355-.273.519-.397 1.277-.965 1.98-1.496 1.98-3.487 0-1.638-2.009-3.816-4.694-3.816h-13.074a12.448 12.448 0 0 1 6.936-3.901l2.272 2.272 2.287-2.287a12.477 12.477 0 0 1 8.658 6.208l-1.576 3.291 3.076 1.472a12.771 12.771 0 0 1 .035 2.164Zm-22.638-5.47.878 1.834-3.068 1.469a12.472 12.472 0 0 0 .396 4.666h3.507v-7.969h-1.713Zm11.165-8.38a1.014 1.014 0 1 1-2.027-.001 1.014 1.014 0 0 1 2.027.001Zm-12.156 9.187a1.013 1.013 0 1 1-2.026 0 1.013 1.013 0 0 1 2.026 0Zm23.201 1.045a1.013 1.013 0 1 0 0-2.026 1.013 1.013 0 0 0 0 2.026Zm-3.58 13.272a1.014 1.014 0 1 1-2.027-.001 1.014 1.014 0 0 1 2.027.001Zm-16.037 1.013a1.013 1.013 0 1 0 0-2.026 1.013 1.013 0 0 0 0 2.026Zm8.882-16.069h-4.137v2.364h4.137c.608 0 1.621-.271 1.621-1.115 0-.895-1.114-1.249-1.621-1.249ZM544.33 146.999l-2.666 4.737 2.666 4.737h5.333l2.667-4.737-2.667-4.737h-5.333Zm-2.666 17.003 2.666-4.737h5.333l2.667 4.737-2.667 4.737h-5.333l-2.666-4.737Zm0 12.261 2.666-4.737h5.333l2.667 4.737-2.667 4.737h-5.333l-2.666-4.737Zm10.672-6.14 2.666-4.737h5.333l2.667 4.737-2.667 4.737h-5.333l-2.666-4.737Zm2.666-16.991-2.666 4.737 2.666 4.737h5.333l2.667-4.737-2.667-4.737h-5.333ZM531 170.123l2.666-4.737h5.333l2.667 4.737-2.667 4.737h-5.333L531 170.123Zm2.666-16.991L531 157.869l2.666 4.737h5.333l2.667-4.737-2.667-4.737h-5.333ZM466.832 145.453a1.141 1.141 0 0 1 0-1.601l.018-.018a1.11 1.11 0 0 1 1.584 0l17.788 17.983a1.141 1.141 0 0 1 0 1.601l-.018.019a1.112 1.112 0 0 1-1.584 0l-17.788-17.984Zm1.453 6.059a1.143 1.143 0 0 0 0 1.602l13.27 13.42a1.11 1.11 0 0 0 1.584 0l.018-.018a1.143 1.143 0 0 0 0-1.602l-13.27-13.42a1.11 1.11 0 0 0-1.584 0l-.018.018Zm28.465 12.078a1.112 1.112 0 0 0-1.584 0l-18.658 18.87a1.143 1.143 0 0 0 0 1.602l.018.018a1.112 1.112 0 0 0 1.584 0l18.658-18.87a1.141 1.141 0 0 0 0-1.601l-.018-.019Zm-26.821-2.707a1.141 1.141 0 0 1 0-1.601l.019-.019a1.11 1.11 0 0 1 1.583 0l8.676 8.774a1.141 1.141 0 0 1 0 1.601l-.019.019a1.11 1.11 0 0 1-1.583 0l-8.676-8.774Zm24.848-2.937a1.112 1.112 0 0 1 1.464-.106c.895.454 2.693 1.472 3.308 2.225-1.95.322-3.654.65-4.469.815l-22.893 23.152a1.11 1.11 0 0 1-1.584 0l-.018-.018a1.143 1.143 0 0 1 0-1.602l24.192-24.466Zm.446 11.836a1.109 1.109 0 0 1 1.583 0l.019.018a1.143 1.143 0 0 1 0 1.602l-5.993 6.061.002.003-.376.38a.508.508 0 0 0 0 .712l.376.381-.006.006 3.22 3.256h2.008c.622 0 1.127.505 1.127 1.127v.038c0 .622-.505 1.127-1.127 1.127h-2.346a1.112 1.112 0 0 1-.677-.138 1.122 1.122 0 0 1-.338-.282l-5.018-5.075a1.141 1.141 0 0 1 0-1.601l.019-.019c.038-.038.078-.073.12-.105l7.407-7.491Z" fill="#F6F6F6"/><path fill-rule="evenodd" clip-rule="evenodd" d="M404.646 148H398.5v31.483h4.609l1.025-2.58h.507c.768 1.033 3.175 3.097 6.658 3.097 4.353 0 6.785-3.355 7.938-9.161h-6.146l-.014.047c-.177.608-1.226 4.211-4.083 4.211-1.993 0-4.227-1.587-4.348-3.692v-6.299c.117-2.103 2.236-3.687 4.476-3.687 1.844 0 2.561.86 2.689 1.29h6.786c-.513-2.323-2.945-6.193-7.298-6.193-3.475 0-5.879 2.055-6.653 3.089V148Zm26.13 5.938h-2.561l-.464 3.512a9.383 9.383 0 0 0-3.624 1.518l-2.708-2.087-1.811 1.824 2.072 2.731a9.54 9.54 0 0 0-1.5 3.643l-3.492.469v2.58l3.492.47a9.534 9.534 0 0 0 1.55 3.713l-2.122 2.796 1.811 1.825 2.803-2.16a9.373 9.373 0 0 0 3.527 1.452l.466 3.522h2.561l.466-3.523a9.388 9.388 0 0 0 3.589-1.495l2.86 2.204 1.81-1.825-2.185-2.88c.324-.476.606-.983.841-1.517h-8.891a3.87 3.87 0 1 1 0-7.741h8.893a9.543 9.543 0 0 0-.794-1.449l2.136-2.815-1.81-1.824-2.766 2.131a9.393 9.393 0 0 0-3.684-1.561l-.465-3.513Z" fill="#F6F6F6" opacity=".6"/><path opacity=".2" d="M462 86v28" stroke="#F6F6F6" stroke-linecap="round"/><path d="M483.978 106v-4.536h2.772c2.664 0 4.626-1.386 4.626-4.014v-.216c0-2.61-1.98-4.014-4.626-4.014h-5.418V106h2.646Zm0-10.584h2.502c1.26 0 2.16.54 2.16 1.818v.216c0 1.26-.9 1.818-2.16 1.818h-2.502v-3.852ZM495.68 106v-4.482c0-1.638.882-2.538 2.556-2.538.234 0 .522.018.702.036v-2.412a2.795 2.795 0 0 0-.558-.054c-1.368 0-2.286.846-2.736 1.98l-.072-1.818h-2.412V106h2.52Zm8.972.234c2.88 0 4.77-1.944 4.77-4.77v-.216c0-2.826-1.89-4.77-4.77-4.77s-4.77 1.944-4.77 4.752v.234c0 2.826 1.89 4.77 4.77 4.77Zm0-1.962c-1.476 0-2.214-.99-2.214-2.808v-.234c0-1.8.738-2.79 2.214-2.79s2.214.99 2.214 2.808v.216c0 1.818-.738 2.808-2.214 2.808Zm9.349-9.216v-2.592h-2.664v2.592h2.664Zm-3.168 14.238c2.106 0 3.078-1.044 3.078-2.916v-9.666h-2.52v9.45c0 .792-.324 1.152-1.116 1.152-.432 0-.702-.072-.936-.18v1.926c.432.162.954.234 1.494.234Zm9.849-3.06c2.394 0 4.014-1.188 4.464-3.06h-2.502c-.234.648-.846 1.134-1.962 1.134-1.386 0-2.196-.792-2.304-2.412h6.822c.162-3.24-1.386-5.418-4.518-5.418-2.916 0-4.734 1.926-4.734 4.752v.234c0 2.862 1.782 4.77 4.734 4.77Zm-2.268-5.922c.234-1.314.972-1.962 2.25-1.962 1.224 0 1.89.756 2.016 1.962h-4.266Zm13.024 5.922c2.43 0 4.032-1.332 4.32-3.546h-2.466c-.198.936-.702 1.566-1.89 1.566-1.386 0-2.016-.99-2.016-2.79v-.234c0-1.782.63-2.772 2.016-2.772 1.188 0 1.674.612 1.872 1.548h2.484c-.306-2.196-1.89-3.528-4.32-3.528-2.898 0-4.644 1.908-4.644 4.752v.234c0 2.844 1.746 4.77 4.644 4.77Zm10.227 0c.54 0 1.224-.108 1.674-.216v-1.944a4.11 4.11 0 0 1-1.116.18c-.99 0-1.332-.342-1.332-1.152v-4.554h2.412v-1.836h-2.412V93.76h-2.52v2.952h-1.728v1.836h1.728v4.77c0 1.908 1.062 2.916 3.294 2.916Zm7.322 0c2.484 0 4.068-1.224 4.068-3.06 0-1.62-1.062-2.43-3.564-2.826-1.602-.252-2.07-.558-2.07-1.134 0-.612.558-.972 1.44-.972.918 0 1.548.432 1.656 1.224h2.376c-.18-1.89-1.62-2.988-4.014-2.988-2.268 0-3.87 1.152-3.87 2.898 0 1.674 1.098 2.43 3.492 2.826 1.656.288 2.088.63 2.088 1.206 0 .666-.648 1.026-1.602 1.026-1.026 0-1.728-.468-1.872-1.368h-2.394c.162 1.998 1.656 3.168 4.266 3.168Z" fill="#fff"/><path d="M1058.85 89v-3.68l1.6-1.792 3.9 5.472h1.7l-4.59-6.448 4.43-4.912h-1.76l-5.28 5.936V77.64h-1.44V89h1.44Zm11.48.192c1.94 0 3.25-1.008 3.66-2.672h-1.36c-.28.96-1.05 1.536-2.3 1.536-1.58 0-2.53-1.04-2.58-2.896h6.29c.11-2.768-1.13-4.576-3.73-4.576-2.44 0-3.9 1.696-3.9 4.16v.288c0 2.448 1.44 4.16 3.92 4.16Zm-2.53-5.088c.18-1.552 1.04-2.384 2.51-2.384 1.43 0 2.21.896 2.32 2.384h-4.83Zm9.57 4.896v-4.368c0-1.76 1-2.672 2.48-2.672.18 0 .31 0 .48.016v-1.344c-.16-.032-.32-.032-.43-.032-1.15 0-2.06.64-2.54 1.776l-.02-1.6h-1.33V89h1.36Zm6.03 0v-4.64c0-1.616.92-2.592 2.28-2.592 1.32 0 1.88.784 1.88 2.256V89h1.35v-5.312c0-1.888-.88-3.104-2.85-3.104-1.31 0-2.18.656-2.66 1.536l-.03-1.344h-1.33V89h1.36Zm11.38.192c1.94 0 3.25-1.008 3.67-2.672h-1.36c-.29.96-1.06 1.536-2.31 1.536-1.58 0-2.53-1.04-2.57-2.896h6.28c.12-2.768-1.13-4.576-3.72-4.576-2.45 0-3.91 1.696-3.91 4.16v.288c0 2.448 1.44 4.16 3.92 4.16Zm-2.53-5.088c.18-1.552 1.04-2.384 2.52-2.384 1.42 0 2.2.896 2.32 2.384h-4.84Zm9.58 4.896V76.968h-1.36V89h1.36Z" fill="gray"/><rect width="286" height="344" rx="8" fill="#E7F6FE"/><rect x="28" y="58" width="230" height="70" rx="4" fill="#fff" stroke="#D4EBF7"/><path fill-rule="evenodd" clip-rule="evenodd" d="M75 90c-.173 0-.344.014-.514.03-.615-2.054-1.761-3.834-3.282-5.094C69.684 83.676 67.864 83 66 83c-1.865 0-3.684.677-5.204 1.936-1.52 1.26-2.667 3.04-3.282 5.094A5.376 5.376 0 0 0 57 90c-1.591 0-3.117.738-4.243 2.05C51.632 93.363 51 95.144 51 97c0 1.857.632 3.637 1.757 4.95C53.883 103.263 55.41 104 57 104h18c1.591 0 3.117-.737 4.243-2.05C80.368 100.637 81 98.857 81 97c0-1.856-.632-3.637-1.757-4.95C78.117 90.738 76.59 90 75 90Zm-8.333 1.09a1.779 1.779 0 1 0-1.334 0v4.136L61.03 97.07a1.778 1.778 0 1 0 .526 1.225L66 96.391l4.446 1.905V98.332a1.778 1.778 0 1 0 .525-1.262l-4.304-1.844V91.09Z" fill="#00ACE5"/><rect x="28" y="152" width="230" height="70" rx="4" fill="#fff" stroke="#D4EBF7"/><path d="M71.33 182.553v-3.556a5.333 5.333 0 0 0-10.667 0v3.556" stroke="#52CB52" stroke-width="2.444"/><path fill-rule="evenodd" clip-rule="evenodd" d="M57.776 182.555h16.445a2.444 2.444 0 0 1 2.444 2.444v12.889a2.444 2.444 0 0 1-2.444 2.444H57.776a2.444 2.444 0 0 1-2.444-2.444v-12.889a2.444 2.444 0 0 1 2.444-2.444Zm10.446 7.554c0 .912-.55 1.695-1.335 2.038v1.961a.889.889 0 1 1-1.778 0v-1.962a2.224 2.224 0 0 1 .89-4.259c1.228 0 2.223.995 2.223 2.222Z" fill="#52CB52"/><path d="M103.328 193.208c2.672 0 4.368-1.392 4.368-3.36v-.16c0-1.872-1.344-2.816-4.048-3.264-2.224-.368-2.72-.88-2.72-1.712v-.112c0-.992.816-1.648 2.192-1.648 1.408 0 2.336.624 2.512 1.824h1.856c-.272-2.208-1.936-3.344-4.336-3.344-2.464 0-4.096 1.392-4.096 3.248v.16c0 1.68 1.024 2.656 3.776 3.168 2.24.416 2.976.928 2.976 1.84v.16c0 1.088-1.12 1.648-2.432 1.648-1.552 0-2.672-.624-2.864-2.096h-1.856c.192 2.32 1.936 3.648 4.672 3.648Zm9.847 0c2.016 0 3.392-1.04 3.792-2.704h-1.744c-.256.784-.912 1.296-2.048 1.296-1.424 0-2.256-.88-2.336-2.544h6.176c.144-2.832-1.168-4.688-3.856-4.688-2.496 0-4.032 1.696-4.032 4.192v.24c0 2.496 1.504 4.208 4.048 4.208Zm-2.288-5.2c.192-1.344.96-2.064 2.272-2.064 1.264 0 1.968.784 2.08 2.064h-4.352Zm11.583 5.2c2.064 0 3.408-1.152 3.696-2.992h-1.744c-.208.944-.8 1.552-1.968 1.552-1.424 0-2.144-.992-2.144-2.768v-.24c0-1.776.72-2.768 2.144-2.768 1.168 0 1.744.592 1.952 1.52h1.728c-.256-1.792-1.584-2.944-3.648-2.944-2.512 0-3.984 1.696-3.984 4.192v.24c0 2.496 1.472 4.208 3.968 4.208Zm8.248 0c1.184 0 2.064-.656 2.544-1.456l.032 1.248h1.712v-8.24h-1.776v4.576c0 1.472-.72 2.4-1.936 2.4-1.184 0-1.648-.752-1.648-2.016v-4.96h-1.776v5.296c0 1.936.928 3.152 2.848 3.152Zm8.414-.208v-4.192c0-1.632.896-2.48 2.384-2.48.192 0 .384.016.544.032v-1.712a2.25 2.25 0 0 0-.448-.048c-1.184 0-2.048.704-2.496 1.76l-.048-1.6h-1.696V193h1.76Zm6.298-9.808v-2.224h-1.856v2.224h1.856Zm-.048 9.808v-8.24h-1.76V193h1.76Zm5.725.208c.416 0 .976-.096 1.344-.192v-1.408c-.24.08-.656.16-1.008.16-.976 0-1.28-.368-1.28-1.184v-4.496h2.24v-1.328h-2.24v-2.576h-1.76v2.576h-1.6v1.328h1.6v4.688c0 1.6.896 2.432 2.704 2.432Zm6.163 2.512 4.128-10.96h-1.808l-2.144 6.256-2.224-6.256h-1.888l3.184 8.192-1.072 2.768h1.824Z" fill="#1A1A1A"/><rect x="28" y="246" width="230" height="70" rx="4" fill="#fff" stroke="#D4EBF7"/><path d="m75.779 293.145-5.334-5.333 2.37-2.371 5.334 5.334a1.676 1.676 0 1 1-2.37 2.37Z" fill="#F46666"/><path fill-rule="evenodd" clip-rule="evenodd" d="M64.224 267.662c6.382 0 11.555 5.174 11.555 11.556 0 6.382-5.173 11.555-11.555 11.555s-11.556-5.173-11.556-11.555 5.174-11.556 11.556-11.556Zm-6.222 9.779c0-.491.398-.889.889-.889h5.333a.889.889 0 0 1 0 1.778h-5.333a.889.889 0 0 1-.89-.889Zm6.225 3.557a.889.889 0 1 0 0 1.777h5.333a.889.889 0 1 0 0-1.777h-5.333Zm2.665-3.557c0-.491.398-.889.89-.889h1.777a.889.889 0 0 1 0 1.778h-1.778a.889.889 0 0 1-.889-.889Zm-8.001 3.557a.889.889 0 0 0 0 1.777h1.777a.889.889 0 1 0 0-1.777h-1.777Z" fill="#F46666"/><path d="M104.192 287.208c3.296 0 5.392-2.352 5.392-5.696v-.384c0-3.36-2.096-5.696-5.392-5.696-3.312 0-5.408 2.336-5.408 5.696v.384c0 3.344 2.096 5.696 5.408 5.696Zm0-1.6c-2.192 0-3.472-1.616-3.472-4.096v-.384c0-2.48 1.264-4.096 3.472-4.096 2.192 0 3.472 1.616 3.472 4.096v.384c0 2.48-1.28 4.096-3.472 4.096Zm11.783 1.6c2.16 0 3.568-1.744 3.568-4.208v-.24c0-2.448-1.36-4.192-3.52-4.192-1.312 0-2.208.624-2.688 1.408v-5.008h-1.776V287h1.648l.048-1.36c.4.784 1.328 1.568 2.72 1.568Zm-.432-1.424c-1.472 0-2.272-1.008-2.272-2.784v-.24c0-1.776.8-2.8 2.272-2.8 1.408 0 2.208 1.024 2.208 2.8v.24c0 1.76-.8 2.784-2.208 2.784Zm8.869 1.424c2.064 0 3.44-1.056 3.44-2.624 0-1.44-1.024-2.128-3.088-2.464-1.504-.24-1.984-.544-1.984-1.184 0-.672.592-1.072 1.52-1.072s1.584.448 1.696 1.28h1.68c-.16-1.632-1.392-2.576-3.36-2.576-1.904 0-3.232.992-3.232 2.464s.976 2.112 2.992 2.448c1.552.288 2.016.608 2.016 1.264 0 .736-.672 1.136-1.664 1.136-1.072 0-1.776-.464-1.936-1.44h-1.68c.144 1.76 1.472 2.768 3.6 2.768Zm8.826 0c2.016 0 3.392-1.04 3.792-2.704h-1.744c-.256.784-.912 1.296-2.048 1.296-1.424 0-2.256-.88-2.336-2.544h6.176c.144-2.832-1.168-4.688-3.856-4.688-2.496 0-4.032 1.696-4.032 4.192v.24c0 2.496 1.504 4.208 4.048 4.208Zm-2.288-5.2c.192-1.344.96-2.064 2.272-2.064 1.264 0 1.968.784 2.08 2.064h-4.352Zm9.807 4.992v-4.192c0-1.632.896-2.48 2.384-2.48.192 0 .384.016.544.032v-1.712a2.25 2.25 0 0 0-.448-.048c-1.184 0-2.048.704-2.496 1.76l-.048-1.6h-1.696V287h1.76Zm8.632 0 3.04-8.24h-1.792l-2.176 6.448-2.208-6.448h-1.872l3.072 8.24h1.936Zm6.52.208c1.184 0 2.192-.56 2.704-1.488l.064 1.28h1.616v-5.6c0-1.712-1.2-2.832-3.328-2.832-2.016 0-3.328.96-3.504 2.56h1.68c.144-.752.768-1.184 1.792-1.184 1.04 0 1.664.48 1.664 1.392v.592l-3.248.48c-1.408.192-2.208 1.056-2.208 2.368 0 1.408 1.072 2.432 2.768 2.432Zm.4-1.392c-.928 0-1.456-.432-1.456-1.12 0-.64.352-.992 1.104-1.104l2.64-.368v.752c0 1.072-1.056 1.84-2.288 1.84Zm10.697 1.392c2.16 0 3.568-1.744 3.568-4.208v-.24c0-2.448-1.36-4.192-3.52-4.192-1.312 0-2.208.624-2.688 1.408v-5.008h-1.776V287h1.648l.048-1.36c.4.784 1.328 1.568 2.72 1.568Zm-.432-1.424c-1.472 0-2.272-1.008-2.272-2.784v-.24c0-1.776.8-2.8 2.272-2.8 1.408 0 2.208 1.024 2.208 2.8v.24c0 1.76-.8 2.784-2.208 2.784Zm7.746-8.592v-2.224h-1.856v2.224h1.856Zm-.048 9.808v-8.24h-1.76V287h1.76Zm4.125 0v-12.032h-1.76V287h1.76Zm4.173-9.808v-2.224h-1.856v2.224h1.856Zm-.048 9.808v-8.24h-1.76V287h1.76Zm5.725.208c.416 0 .976-.096 1.344-.192v-1.408c-.24.08-.656.16-1.008.16-.976 0-1.28-.368-1.28-1.184v-4.496h2.24v-1.328h-2.24v-2.576h-1.76v2.576h-1.6v1.328h1.6v4.688c0 1.6.896 2.432 2.704 2.432Zm6.163 2.512 4.128-10.96h-1.808l-2.144 6.256-2.224-6.256h-1.888l3.184 8.192-1.072 2.768h1.824ZM110.066 35.169c2.561 0 3.861-1.365 3.861-3.77V25.77h-1.911v5.59c0 1.43-.624 2.171-1.95 2.171-1.352 0-1.937-.754-1.937-2.158V25.77h-1.937v5.642c0 2.405 1.3 3.757 3.874 3.757Zm9.691 0c2.184 0 3.692-1.118 3.692-2.821v-.13c0-1.534-1.105-2.327-3.302-2.704-1.833-.299-2.093-.637-2.093-1.209v-.078c0-.65.507-1.118 1.521-1.118 1.04 0 1.677.442 1.82 1.261h1.898c-.221-1.807-1.599-2.769-3.679-2.769-2.067 0-3.484 1.105-3.484 2.717v.13c0 1.443.871 2.236 3.107 2.652 1.729.325 2.288.676 2.288 1.313v.117c0 .715-.78 1.105-1.729 1.105-1.157 0-1.911-.468-2.08-1.456h-1.898c.182 1.872 1.586 2.99 3.939 2.99ZM132.084 35v-1.612h-4.797v-2.314h4.29v-1.56h-4.29v-2.171h4.693V25.77h-6.617V35h6.721Zm9.217.169c2.353 0 3.744-1.43 4.017-3.341h-1.937c-.195 1.014-.897 1.729-2.093 1.729-1.547 0-2.444-1.222-2.444-3.029v-.286c0-1.807.871-3.042 2.418-3.042 1.118 0 1.833.624 2.08 1.625h1.95c-.273-1.885-1.742-3.224-4.004-3.224-2.678 0-4.446 1.924-4.446 4.641v.286c0 2.73 1.716 4.641 4.459 4.641ZM155.237 35l-3.51-9.23h-2.08l-3.51 9.23h1.95l.728-2.041h3.692l.715 2.041h2.015Zm-4.576-7.267 1.313 3.731h-2.639l1.326-3.731Zm9.198 7.436c2.184 0 3.692-1.118 3.692-2.821v-.13c0-1.534-1.105-2.327-3.302-2.704-1.833-.299-2.093-.637-2.093-1.209v-.078c0-.65.507-1.118 1.521-1.118 1.04 0 1.677.442 1.82 1.261h1.898c-.221-1.807-1.599-2.769-3.679-2.769-2.067 0-3.484 1.105-3.484 2.717v.13c0 1.443.871 2.236 3.107 2.652 1.729.325 2.288.676 2.288 1.313v.117c0 .715-.78 1.105-1.729 1.105-1.157 0-1.911-.468-2.08-1.456h-1.898c.182 1.872 1.586 2.99 3.939 2.99ZM172.186 35v-1.612h-4.797v-2.314h4.29v-1.56h-4.29v-2.171h4.693V25.77h-6.617V35h6.721Zm5.331.169c2.184 0 3.692-1.118 3.692-2.821v-.13c0-1.534-1.105-2.327-3.302-2.704-1.833-.299-2.093-.637-2.093-1.209v-.078c0-.65.507-1.118 1.521-1.118 1.04 0 1.677.442 1.82 1.261h1.898c-.221-1.807-1.599-2.769-3.679-2.769-2.067 0-3.484 1.105-3.484 2.717v.13c0 1.443.871 2.236 3.107 2.652 1.729.325 2.288.676 2.288 1.313v.117c0 .715-.78 1.105-1.729 1.105-1.157 0-1.911-.468-2.08-1.456h-1.898c.182 1.872 1.586 2.99 3.939 2.99ZM570.858 35.169c2.561 0 3.861-1.365 3.861-3.77V25.77h-1.911v5.59c0 1.43-.624 2.171-1.95 2.171-1.352 0-1.937-.754-1.937-2.158V25.77h-1.937v5.642c0 2.405 1.3 3.757 3.874 3.757Zm9.69 0c2.184 0 3.692-1.118 3.692-2.821v-.13c0-1.534-1.105-2.327-3.302-2.704-1.833-.299-2.093-.637-2.093-1.209v-.078c0-.65.507-1.118 1.521-1.118 1.04 0 1.677.442 1.82 1.261h1.898c-.221-1.807-1.599-2.769-3.679-2.769-2.067 0-3.484 1.105-3.484 2.717v.13c0 1.443.871 2.236 3.107 2.652 1.729.325 2.288.676 2.288 1.313v.117c0 .715-.78 1.105-1.729 1.105-1.157 0-1.911-.468-2.08-1.456h-1.898c.182 1.872 1.586 2.99 3.939 2.99ZM592.876 35v-1.612h-4.797v-2.314h4.29v-1.56h-4.29v-2.171h4.693V25.77h-6.617V35h6.721Zm4.025 0v-3.276h1.547L600.541 35h2.145l-2.288-3.471c1.196-.377 1.976-1.287 1.976-2.704v-.156c0-1.885-1.43-2.899-3.341-2.899h-4.043V35h1.911Zm0-7.644h1.937c.91 0 1.56.39 1.56 1.313v.156c0 .91-.65 1.313-1.56 1.313h-1.937v-2.782Zm13.822 7.813c2.184 0 3.692-1.118 3.692-2.821v-.13c0-1.534-1.105-2.327-3.302-2.704-1.833-.299-2.093-.637-2.093-1.209v-.078c0-.65.507-1.118 1.521-1.118 1.04 0 1.677.442 1.82 1.261h1.898c-.221-1.807-1.599-2.769-3.679-2.769-2.067 0-3.484 1.105-3.484 2.717v.13c0 1.443.871 2.236 3.107 2.652 1.729.325 2.288.676 2.288 1.313v.117c0 .715-.78 1.105-1.729 1.105-1.157 0-1.911-.468-2.08-1.456h-1.898c.182 1.872 1.586 2.99 3.939 2.99ZM618.24 35v-3.276h2.002c1.924 0 3.341-1.001 3.341-2.899v-.156c0-1.885-1.43-2.899-3.341-2.899h-3.913V35h1.911Zm0-7.644h1.807c.91 0 1.56.39 1.56 1.313v.156c0 .91-.65 1.313-1.56 1.313h-1.807v-2.782ZM632.607 35l-3.51-9.23h-2.08l-3.51 9.23h1.95l.728-2.041h3.692l.715 2.041h2.015Zm-4.576-7.267 1.313 3.731h-2.639l1.326-3.731Zm9.708 7.436c2.353 0 3.744-1.43 4.017-3.341h-1.937c-.195 1.014-.897 1.729-2.093 1.729-1.547 0-2.444-1.222-2.444-3.029v-.286c0-1.807.871-3.042 2.418-3.042 1.118 0 1.833.624 2.08 1.625h1.95c-.273-1.885-1.742-3.224-4.004-3.224-2.678 0-4.446 1.924-4.446 4.641v.286c0 2.73 1.716 4.641 4.459 4.641ZM650.28 35v-1.612h-4.797v-2.314h4.29v-1.56h-4.29v-2.171h4.693V25.77h-6.617V35h6.721Z" fill="#1A1A1A"/><rect x="930" width="286" height="344" rx="8" fill="#EBFAEB"/><rect x="958" y="58" width="230" height="164" rx="4" fill="#fff" stroke="#D9F2D9"/><path fill-rule="evenodd" clip-rule="evenodd" d="M998.072 77.094a.856.856 0 0 1 .382 1.162c-.436.838-.672 2.04-.762 3.274-.089 1.22-.03 2.373.061 3.052a.865.865 0 0 1-.755.969.876.876 0 0 1-.985-.743c-.107-.799-.169-2.07-.072-3.402.096-1.316.354-2.792.95-3.937a.885.885 0 0 1 1.181-.375Z" fill="#1A1A1A"/><path d="M992.985 90.758c.527-2.462-4.829-2.864-7.573-2.757-10.816.229-6.295 6.751-.306 7.479 2.464.299 7.22-1.644 7.879-4.722Z" fill="#CFEDFC"/><path d="M979.676 89.368c.304-.247.698-.47 1.192-.661l.154.476.785.978 1.149 1.025.883-.129 4.414-.45 4.64.488a4.27 4.27 0 0 1-.686 1.287c-1.373-.27-4.579-.35-6.32-.354-.466.538-.635 2.37-.671 3.463a9.49 9.49 0 0 1-1.541-.3c-.043-.854.257-2.077.475-2.755-1.365.073-2.809.736-3.605 1.198-.367-.29-.685-.6-.943-.919l1.769-.956c-.273-.136-1.136-1.476-1.695-2.391Z" fill="#00ACE6"/><path d="m992.066 93.728 1.59 1.058-7.185 10.457-1.727-1.149-1.326-1.923-.664-3.177 1.189-2.79 2.854.857 5.269-3.333Z" fill="#FFE100"/><path fill-rule="evenodd" clip-rule="evenodd" d="M990.619 86.78c2.131-4.52 7.317-3.412 9.761-1.784l-6.725 9.794-.773-.514c-.98 1.119-2.983 1.966-3.862 2.25.089 1.257 1.162 2.226 1.687 2.554l-2.211 3.217c-2.581-1.716-3.335-4.171-3.389-5.184l-.958-.05c-1.691 3.77.961 6.693 2.596 7.781L983.89 109l.496-3.902c-3.219-2.714-2.643-6.815-1.953-8.526-2.218-.433-6.067-3.599-5.344-6.289 1.259-4.683 9.521-4.606 13.53-3.503Zm2.366 3.965c.501-2.448-4.838-2.848-7.576-2.742-1.741.037-3.084.237-4.088.55.447 1.365 1.483 2.043 1.986 2.22 3.175-.71 7.296-.383 9.678-.028Zm-.201.647c-1.66-.212-4.134-.267-5.418-.264-1.743 1.17-1.967 3.145-1.818 4.384 2.361.04 6.187-1.579 7.236-4.12Zm-8.032 4.041c-.319-1.795.706-3.489 1.336-4.179-3.229.122-5.264 1.023-6.258 1.73 1.064 1.145 2.891 2.123 4.922 2.449Zm-5.487-3.19c.798-.48 2.228-.92 3.006-1.118-1.125-.827-1.616-1.691-1.79-2.25-1.759.832-1.959 2.134-1.216 3.368ZM1008.7 84.16a.89.89 0 0 0-1.24.084c-.63.71-1.67 1.373-2.8 1.916-1.12.535-2.23.911-2.91 1.08a.86.86 0 0 0-.63 1.051c.12.462.6.74 1.07.622.79-.2 2.01-.617 3.23-1.202 1.21-.578 2.51-1.363 3.36-2.334a.856.856 0 0 0-.08-1.218Z" fill="#1A1A1A"/><path d="M997.707 93.901c2.127-1.398 4.503 3.341 5.423 5.886 3.81 9.959-4.023 8.263-6.94 3.067-1.201-2.138-1.141-7.204 1.517-8.953Z" fill="#CFEDFC"/><path d="M1003.98 105.533c.12-.369.18-.812.18-1.335l-.51.037-1.22-.352-1.39-.667-.21-.855-1.218-4.197-2.19-4.054c-.377.304-.695.68-.958 1.106.767 1.153 2.037 4.05 2.689 5.638-.334.626-1.998 1.463-3.016 1.903l.052.098c.239.424.509.825.804 1.198.823-.28 1.864-1.009 2.423-1.461.44 1.273.352 2.838.213 3.737a6.01 6.01 0 0 0 1.221.519l.24-1.971c.23.198 1.82.487 2.89.656Z" fill="#00ACE6"/><path d="m995.245 95.842-1.59-1.058-7.186 10.457 1.726 1.148 2.309.494 3.244-.578 2.188-2.125-1.871-2.286 1.18-6.052Z" fill="#FFE100"/><path fill-rule="evenodd" clip-rule="evenodd" d="M1002.34 94.576c3.47-3.631.49-7.952-1.96-9.58l-6.726 9.792.772.514c-.689 1.312-.742 3.456-.682 4.364-1.219.388-2.533-.23-3.038-.588l-2.211 3.218c2.581 1.716 5.177 1.49 6.153 1.162l.405.855c-2.927 2.95-6.673 1.618-8.308.53l-2.856 4.156 3.495-1.908c3.76 1.928 7.414-.126 8.77-1.394 1.236 1.863 5.656 4.198 7.926 2.535 3.95-2.895.79-10.408-1.74-13.656Zm-4.621-.683c2.123-1.37 4.491 3.355 5.411 5.894.61 1.603.92 2.904 1 3.937-1.45.1-2.48-.592-2.83-.986-.51-3.163-2.359-6.804-3.581-8.845Zm-.535.424c.819 1.437 1.792 3.675 2.267 4.848-.454 2.027-2.233 2.967-3.457 3.294-.918-2.141-.817-6.237 1.19-8.142Zm-.819 8.839c1.812-.378 3.028-1.945 3.444-2.777 1.091 2.992 1.001 5.186.701 6.357-1.477-.545-3.081-1.847-4.145-3.58Zm5.055 3.82c.15-.907.04-2.377-.07-3.161 1.2.719 2.2.845 2.79.796-.13 1.916-1.28 2.583-2.72 2.365Z" fill="#1A1A1A"/><path d="M1027 81v24" stroke="#E6E6E6" stroke-linecap="round"/><path d="M1046.55 99v-3.808l1.03-1.136 3.37 4.944h2.71l-4.52-6.496 4.34-4.864h-2.72l-4.21 4.832V87.64h-2.37V99h2.37Zm11.35.208c2.12 0 3.56-1.056 3.96-2.72h-2.22c-.21.576-.75 1.008-1.74 1.008-1.24 0-1.96-.704-2.05-2.144h6.06c.15-2.88-1.23-4.816-4.01-4.816-2.6 0-4.21 1.712-4.21 4.224v.208c0 2.544 1.58 4.24 4.21 4.24Zm-2.02-5.264c.21-1.168.86-1.744 2-1.744 1.09 0 1.68.672 1.79 1.744h-3.79ZM1065.97 99v-3.984c0-1.456.78-2.256 2.27-2.256.21 0 .47.016.63.032v-2.144a2.57 2.57 0 0 0-.5-.048c-1.22 0-2.03.752-2.43 1.76l-.07-1.616h-2.14V99h2.24Zm6.67 0v-4.576c0-1.312.7-2.08 1.74-2.08 1.08 0 1.49.704 1.49 1.904V99h2.23v-5.312c0-1.856-.82-3.152-2.87-3.152-1.37 0-2.21.72-2.61 1.488l-.06-1.28h-2.16V99h2.24Zm11.4.208c2.13 0 3.57-1.056 3.97-2.72h-2.23c-.21.576-.75 1.008-1.74 1.008-1.23 0-1.95-.704-2.05-2.144h6.06c.15-2.88-1.23-4.816-4.01-4.816-2.59 0-4.21 1.712-4.21 4.224v.208c0 2.544 1.58 4.24 4.21 4.24Zm-2.02-5.264c.21-1.168.87-1.744 2-1.744 1.09 0 1.68.672 1.79 1.744h-3.79ZM1092.11 99V86.968h-2.24V99h2.24Zm7.74 0v-4.032h1.9l2.58 4.032h2.64l-2.82-4.272c1.47-.464 2.43-1.584 2.43-3.328v-.192c0-2.32-1.76-3.568-4.11-3.568h-4.97V99h2.35Zm0-9.408h2.38c1.12 0 1.92.48 1.92 1.616v.192c0 1.12-.8 1.616-1.92 1.616h-2.38v-3.424Zm11.1 9.616c1.18 0 2.05-.672 2.51-1.408l.05 1.2h2.18v-8.256h-2.26v4.512c0 1.376-.64 2.128-1.66 2.128-1 0-1.43-.624-1.43-1.792v-4.848h-2.25v5.28c0 1.952.91 3.184 2.86 3.184Zm9.19-.208v-4.576c0-1.312.7-2.08 1.74-2.08 1.08 0 1.49.704 1.49 1.904V99h2.23v-5.312c0-1.856-.82-3.152-2.87-3.152-1.37 0-2.21.72-2.61 1.488l-.06-1.28h-2.16V99h2.24Zm11.03.208c.48 0 1.09-.096 1.49-.192v-1.728c-.22.064-.59.16-.99.16-.88 0-1.19-.304-1.19-1.024v-4.048h2.15v-1.632h-2.15V88.12h-2.24v2.624h-1.53v1.632h1.53v4.24c0 1.696.95 2.592 2.93 2.592Zm5.53-9.936v-2.304h-2.36v2.304h2.36Zm-.06 9.728v-8.256h-2.24V99h2.24Zm4.45 0v-4.496c0-1.456.64-2.176 1.65-2.176.91 0 1.35.64 1.35 1.84V99h2.24v-4.496c0-1.424.59-2.176 1.6-2.176.91 0 1.37.608 1.37 1.824V99h2.24v-5.28c0-1.92-.83-3.184-2.81-3.184-1.2 0-2.1.592-2.68 1.552-.41-1.04-1.26-1.552-2.49-1.552-1.28 0-2.08.72-2.48 1.472l-.07-1.264h-2.16V99h2.24Zm16.38.208c2.13 0 3.57-1.056 3.97-2.72h-2.22c-.21.576-.75 1.008-1.75 1.008-1.23 0-1.95-.704-2.04-2.144h6.06c.14-2.88-1.23-4.816-4.02-4.816-2.59 0-4.2 1.712-4.2 4.224v.208c0 2.544 1.58 4.24 4.2 4.24Zm-2.01-5.264c.21-1.168.86-1.744 2-1.744 1.09 0 1.68.672 1.79 1.744h-3.79Z" fill="#1A1A1A"/><path d="M1067 142h12M1067 186h12M1124 170v-12M1023 170v-12" stroke="#E6E6E6"/><rect x="977.5" y="125.5" width="90" height="33" rx="2.5" fill="#F6F6F6" stroke="#E6E6E6"/><path d="m991.806 147 3.06-8.52h-1.128l-2.496 7.26-2.52-7.26h-1.14l3.06 8.52h1.164Zm6.144.144c1.452 0 2.44-.756 2.75-2.004h-1.022c-.216.72-.792 1.152-1.728 1.152-1.188 0-1.896-.78-1.932-2.172h4.712c.09-2.076-.848-3.432-2.792-3.432-1.836 0-2.928 1.272-2.928 3.12v.216c0 1.836 1.08 3.12 2.94 3.12Zm-1.896-3.816c.132-1.164.78-1.788 1.884-1.788 1.068 0 1.656.672 1.74 1.788h-3.624Zm7.176 3.672v-3.276c0-1.32.75-2.004 1.86-2.004.14 0 .23 0 .36.012v-1.008c-.12-.024-.24-.024-.32-.024-.86 0-1.55.48-1.91 1.332l-.01-1.2h-1V147h1.02Zm4.47-7.404v-1.62h-1.08v1.62h1.08Zm-.04 7.404v-6.168h-1.02V147h1.02Zm3.39 0v-5.352h1.75v-.816h-1.75v-1.152c0-.672.22-.996 1.02-.996.24 0 .56.06.77.12v-.852c-.25-.06-.64-.12-.93-.12-1.23 0-1.88.564-1.88 1.704v1.296h-1.24v.816h1.24V147h1.02Zm4.02-7.404v-1.62h-1.08v1.62h1.08Zm-.04 7.404v-6.168h-1.02V147h1.02Zm4.48.144c1.45 0 2.44-.756 2.75-2.004h-1.02c-.22.72-.79 1.152-1.73 1.152-1.19 0-1.89-.78-1.93-2.172h4.72c.08-2.076-.86-3.432-2.8-3.432-1.84 0-2.93 1.272-2.93 3.12v.216c0 1.836 1.08 3.12 2.94 3.12Zm-1.89-3.816c.13-1.164.78-1.788 1.88-1.788 1.07 0 1.66.672 1.74 1.788h-3.62Zm7.18 3.672v-3.276c0-1.32.74-2.004 1.86-2.004.13 0 .22 0 .36.012v-1.008c-.12-.024-.24-.024-.33-.024-.86 0-1.55.48-1.91 1.332l-.01-1.2h-.99V147h1.02Zm11.55-1.32c.42-.636.64-1.464.58-2.496h-1.05c.06.684-.02 1.224-.2 1.668l-1.85-2.244c1.06-.648 1.65-1.356 1.65-2.388 0-1.008-.76-1.884-1.97-1.884-1.36 0-2.15.924-2.15 1.956 0 .684.32 1.32.78 1.86l.19.228c-1.47.852-1.83 1.572-1.83 2.46 0 1.284 1.11 2.304 2.85 2.304.89 0 1.72-.252 2.35-.756l.51.612h1.23l-1.09-1.32Zm-2.87-6.432c.58 0 .93.444.93.996 0 .684-.24 1.104-1.18 1.644l-.24-.3c-.37-.456-.53-.78-.53-1.272 0-.612.38-1.068 1.02-1.068Zm-.1 6.96c-1.2 0-1.79-.624-1.79-1.404 0-.6.21-1.044 1.35-1.704l2.14 2.556c-.44.384-1.04.552-1.7.552Zm10.15.936c1.84 0 2.83-1.116 2.83-2.94v-5.724h-1.09v5.772c0 1.344-.57 1.932-1.76 1.932-1.15 0-1.74-.564-1.74-1.692v-.504h-1.07v.528c0 1.596 1 2.628 2.83 2.628Zm6.02-.144v-8.52h-1.09V147h1.09Zm5.12 0v-7.584h2.6v-.936h-6.29v.936h2.6V147h1.09Z" fill="#1A1A1A"/><rect x="977.5" y="169.5" width="90" height="33" rx="2.5" fill="#F6F6F6" stroke="#E6E6E6"/><path d="M995.868 190.144c2.4 0 3.936-1.716 3.936-4.236v-.336c0-2.532-1.536-4.236-3.936-4.236s-3.948 1.704-3.948 4.236v.336c0 2.52 1.548 4.236 3.948 4.236Zm0-.912c-1.812 0-2.892-1.32-2.892-3.324v-.336c0-2.004 1.08-3.324 2.892-3.324 1.812 0 2.892 1.32 2.892 3.324v.336c0 2.004-1.08 3.324-2.892 3.324Zm8.082.912c2 0 3.16-1.056 3.16-2.412v-.12c0-1.392-1.04-2.076-3.04-2.4-1.68-.276-2.17-.684-2.17-1.476v-.084c0-.888.78-1.428 1.94-1.428 1.14 0 1.93.54 2.08 1.644h1.03c-.19-1.704-1.44-2.532-3.11-2.532-1.8 0-2.94 1.044-2.94 2.328v.12c0 1.212.71 1.956 2.82 2.316 1.8.312 2.38.756 2.38 1.572v.084c0 .996-.97 1.488-2.1 1.488-1.26 0-2.26-.516-2.38-1.896h-1.03c.1 1.836 1.44 2.796 3.36 2.796Zm7.74-.144v-3.456h1.82l2.18 3.456h1.18l-2.22-3.492c1.34-.168 2.2-.984 2.2-2.388v-.216c0-1.572-1.08-2.424-2.74-2.424h-3.44V190h1.02Zm0-7.632h2.38c1.07 0 1.74.492 1.74 1.536v.216c0 1.044-.67 1.536-1.74 1.536h-2.38v-3.288Zm8.22 7.776c.9 0 1.57-.456 1.94-1.116l.02.972h.93v-6.156h-.96v3.456c0 1.188-.6 2.004-1.65 2.004-1.04 0-1.43-.636-1.43-1.668v-3.792h-.96v3.972c0 1.44.69 2.328 2.11 2.328Zm5.3-.144v-3.492c0-1.224.69-1.98 1.74-1.98 1 0 1.44.612 1.44 1.716V190h.94v-3.984c0-1.416-.67-2.316-2.13-2.316-.99 0-1.63.48-1.99 1.14l-.03-.996h-.93V190h.96Zm7.92.144c.26 0 .65-.06.9-.12v-.816c-.21.06-.54.12-.78.12-.81 0-1.03-.324-1.03-1.008v-3.708h1.76v-.768h-1.76v-1.896h-.96v1.896h-1.24v.768h1.24v3.84c0 1.128.64 1.692 1.87 1.692Zm2.97-9.024h-1v1.728h1v-1.728Zm-.99 2.724V190h.96v-6.156h-.96Zm3.36 6.156v-3.456c0-1.248.63-2.016 1.65-2.016.93 0 1.33.576 1.33 1.668V190h.96v-3.48c0-1.224.6-1.992 1.62-1.992.93 0 1.35.564 1.35 1.668V190h.96v-4.008c0-1.428-.68-2.292-2.04-2.292-.92 0-1.62.444-2.05 1.224-.29-.78-.91-1.224-1.85-1.224-.97 0-1.6.504-1.94 1.116l-.01-.972h-.94V190h.96Zm11.92.144c1.47 0 2.45-.756 2.75-2.052h-.97c-.2.792-.8 1.236-1.78 1.236-1.2 0-1.92-.792-1.94-2.22h4.73c.08-2.064-.84-3.408-2.8-3.408-1.82 0-2.91 1.272-2.91 3.108v.228c0 1.824 1.06 3.108 2.92 3.108Zm-1.92-3.816c.14-1.176.81-1.812 1.91-1.812 1.09 0 1.69.672 1.79 1.812h-3.7Z" fill="#1A1A1A"/><rect x="1078.5" y="169.5" width="90" height="33" rx="2.5" fill="#F6F6F6" stroke="#E6E6E6"/><path d="M1110.38 190v-7.224l2.69 7.224h1l2.67-7.224V190h1.07v-8.52h-1.61l-2.62 7.188-2.63-7.188h-1.63V190h1.06Zm11.09.144c.88 0 1.66-.396 2.06-1.104l.03.96h.96v-4.188c0-1.26-.87-2.124-2.38-2.124-1.45 0-2.36.72-2.49 1.884h.99c.1-.648.66-1.056 1.49-1.056.78 0 1.39.384 1.39 1.248v.516l-2.57.384c-.99.144-1.53.816-1.53 1.716 0 1.032.78 1.764 2.05 1.764Zm.14-.84c-.78 0-1.17-.384-1.17-.96 0-.504.26-.84.85-.912l2.23-.336v.624c0 .912-.9 1.584-1.91 1.584Zm5.75 2.736v-3.036c.34.6 1.03 1.14 2.06 1.14 1.61 0 2.66-1.26 2.66-3.12v-.216c0-1.848-1.05-3.12-2.64-3.12-1.1 0-1.82.6-2.13 1.236l-.02-1.092h-.96v8.208h1.03Zm1.86-2.76c-1.21 0-1.91-.828-1.91-2.256v-.216c0-1.416.69-2.256 1.92-2.256 1.14 0 1.8.84 1.8 2.256v.216c0 1.416-.66 2.256-1.81 2.256Zm6.52.864c1.45 0 2.45-.744 2.45-1.908 0-1.08-.8-1.548-2.26-1.788-1.2-.204-1.56-.456-1.56-1.02 0-.576.51-.924 1.28-.924.78 0 1.3.372 1.41 1.08h1c-.12-1.212-1.02-1.896-2.41-1.896-1.34 0-2.27.72-2.27 1.788 0 1.104.73 1.548 2.16 1.8 1.22.216 1.63.492 1.63 1.056 0 .66-.56.996-1.42.996-.91 0-1.47-.372-1.62-1.212h-.98c.13 1.32 1.1 2.028 2.59 2.028Z" fill="#1A1A1A"/><rect x="1078.5" y="125.5" width="90" height="33" rx="2.5" fill="#F6F6F6" stroke="#E6E6E6"/><path d="M1096.7 147v-3.924h4.58V147h1.08v-8.52h-1.08v3.66h-4.58v-3.66h-1.08V147h1.08Zm10.25.144c1.45 0 2.44-.756 2.75-2.004h-1.02c-.22.72-.79 1.152-1.73 1.152-1.19 0-1.9-.78-1.93-2.172h4.71c.09-2.076-.85-3.432-2.79-3.432-1.84 0-2.93 1.272-2.93 3.12v.216c0 1.836 1.08 3.12 2.94 3.12Zm-1.9-3.816c.14-1.164.78-1.788 1.89-1.788 1.07 0 1.65.672 1.74 1.788h-3.63Zm7.18 3.672v-9.024h-1.02V147h1.02Zm2.92 2.04v-3.036c.34.6 1.03 1.14 2.07 1.14 1.6 0 2.65-1.26 2.65-3.12v-.216c0-1.848-1.05-3.12-2.64-3.12-1.09 0-1.81.6-2.13 1.236l-.02-1.092h-.96v8.208h1.03Zm1.86-2.76c-1.21 0-1.91-.828-1.91-2.256v-.216c0-1.416.69-2.256 1.92-2.256 1.14 0 1.8.84 1.8 2.256v.216c0 1.416-.66 2.256-1.81 2.256Zm6.98.864c1.45 0 2.43-.756 2.75-2.004h-1.02c-.22.72-.8 1.152-1.73 1.152-1.19 0-1.9-.78-1.93-2.172h4.71c.09-2.076-.85-3.432-2.79-3.432-1.84 0-2.93 1.272-2.93 3.12v.216c0 1.836 1.08 3.12 2.94 3.12Zm-1.9-3.816c.13-1.164.78-1.788 1.89-1.788 1.06 0 1.65.672 1.74 1.788h-3.63Zm7.18 3.672v-3.276c0-1.32.75-2.004 1.86-2.004.13 0 .23 0 .36.012v-1.008c-.12-.024-.24-.024-.32-.024-.87 0-1.55.48-1.91 1.332l-.01-1.2h-1V147h1.02Zm13.05 0-3.33-8.52h-1.16l-3.33 8.52h1.11l.87-2.304h3.82l.86 2.304h1.16Zm-3.93-7.356 1.56 4.14h-3.13l1.57-4.14Zm6.23 7.356v-3.42h2.25c1.67 0 2.77-.852 2.77-2.448v-.216c0-1.584-1.1-2.436-2.77-2.436h-3.33V147h1.08Zm0-7.584h2.2c1.05 0 1.72.48 1.72 1.5v.216c0 1.032-.67 1.512-1.72 1.512h-2.2v-3.228Zm7.7 7.584v-8.52h-1.09V147h1.09ZM1049.11 35v-3.094l.83-.923 2.74 4.017h2.2l-3.67-5.278 3.53-3.952h-2.21l-3.42 3.926V25.77h-1.93V35h1.93Zm14.09 0v-1.612h-4.8v-2.314h4.29v-1.56h-4.29v-2.171h4.69V25.77h-6.62V35h6.73Zm4.02 0v-3.276h1.55l2.09 3.276h2.15l-2.29-3.471c1.19-.377 1.97-1.287 1.97-2.704v-.156c0-1.885-1.43-2.899-3.34-2.899h-4.04V35h1.91Zm0-7.644h1.94c.91 0 1.56.39 1.56 1.313v.156c0 .91-.65 1.313-1.56 1.313h-1.94v-2.782ZM1076.4 35v-6.76l3.92 6.76h2.15v-9.23h-1.82v6.539l-3.84-6.539h-2.25V35h1.84Zm15.23 0v-1.612h-4.8v-2.314h4.29v-1.56h-4.29v-2.171h4.7V25.77h-6.62V35h6.72Zm7.69 0v-1.612h-3.65V25.77h-1.92V35h5.57Z" fill="#1A1A1A"/><path fill-rule="evenodd" clip-rule="evenodd" d="M261 93a1 1 0 0 1 1-1h.005a1 1 0 0 1 0 2H262a1 1 0 0 1-1-1Zm5.195 0a1 1 0 0 1 1-1h.01a1 1 0 0 1 0 2h-.01a1 1 0 0 1-1-1Zm5.2 0a1 1 0 0 1 1-1h.01a1 1 0 0 1 0 2h-.01a1 1 0 0 1-1-1Zm5.2 0a1 1 0 0 1 1-1h.01a1 1 0 0 1 0 2h-.01a1 1 0 0 1-1-1Zm5.2 0a1 1 0 0 1 1-1h.01a1 1 0 0 1 0 2h-.01a1 1 0 0 1-1-1Zm5.2 0a1 1 0 0 1 1-1h.01a1 1 0 0 1 0 2h-.01a1 1 0 0 1-1-1Zm5.2 0a1 1 0 0 1 1-1h.01a1 1 0 0 1 0 2h-.01a1 1 0 0 1-1-1Zm5.2 0a1 1 0 0 1 1-1h.01a1 1 0 0 1 0 2h-.01a1 1 0 0 1-1-1Zm5.2 0a1 1 0 0 1 1-1h.01a1 1 0 0 1 0 2h-.01a1 1 0 0 1-1-1Zm5.2 0a1 1 0 0 1 1-1h.01a1 1 0 0 1 0 2h-.01a1 1 0 0 1-1-1Zm5.2 0a1 1 0 0 1 1-1H314a1 1 0 0 1 1 1v.005a1 1 0 0 1-1.692.722.996.996 0 0 1-.313-.727ZM314 96.942a1 1 0 0 1 1 1v.01a1 1 0 0 1-2 0v-.01a1 1 0 0 1 1-1Zm0 4.948a1 1 0 0 1 1 1v.01a1 1 0 0 1-2 0v-.01a1 1 0 0 1 1-1Zm0 4.947a1 1 0 0 1 1 1v.01a1 1 0 0 1-2 0v-.01a1 1 0 0 1 1-1Zm0 4.948a1 1 0 0 1 1 1v.009a1 1 0 1 1-2 0v-.009a1 1 0 0 1 1-1Zm0 4.947a1 1 0 0 1 1 1v.01a1 1 0 0 1-2 0v-.01a1 1 0 0 1 1-1Zm0 4.947a1 1 0 0 1 1 1v.01a1 1 0 0 1-2 0v-.01a1 1 0 0 1 1-1Zm0 4.948a1 1 0 0 1 1 1v.01a1 1 0 0 1-2 0v-.01a1 1 0 0 1 1-1Zm0 4.947a1 1 0 0 1 1 1v.01a1 1 0 0 1-2 0v-.01a1 1 0 0 1 1-1Zm0 4.947a1 1 0 0 1 1 1v.01a1 1 0 1 1-2 0v-.01a1 1 0 0 1 1-1Zm0 4.948a1 1 0 0 1 1 1v.01a1 1 0 0 1-2 0v-.01a1 1 0 0 1 1-1Zm0 4.947a1 1 0 0 1 1 1v.01a1 1 0 0 1-2 0v-.01a1 1 0 0 1 1-1Zm0 4.947a1 1 0 0 1 1 1v.01a1 1 0 1 1-2 0v-.01a1 1 0 0 1 1-1Zm0 4.948a1 1 0 0 1 1 1v.01a1 1 0 0 1-2 0v-.01a1 1 0 0 1 1-1Zm0 4.947a1 1 0 0 1 1 1v.01a1 1 0 0 1-2 0v-.01a1 1 0 0 1 1-1Zm0 4.948a1 1 0 0 1 1 1v.009a1 1 0 1 1-2 0v-.009a1 1 0 0 1 1-1Zm0 4.947a1 1 0 0 1 1 1v.01a1 1 0 0 1-2 0v-.01a1 1 0 0 1 1-1Zm0 4.947a1 1 0 0 1 1 1v.01a1 1 0 0 1-2 0v-.01a1 1 0 0 1 1-1Zm0 4.948a1 1 0 0 1 1 1v.01a1 1 0 0 1-2 0v-.01a1 1 0 0 1 1-1Zm0 4.947a1 1 0 0 1 1 1V187a1 1 0 0 1-2 0v-.005a1 1 0 0 1 1-1Z" fill="#1A1A1A"/><path fill-rule="evenodd" clip-rule="evenodd" d="M261 187a1 1 0 0 1 1-1h.005a1 1 0 0 1 0 2H262a1 1 0 0 1-1-1Zm5.195 0a1 1 0 0 1 1-1h.01a1 1 0 0 1 0 2h-.01a1 1 0 0 1-1-1Zm5.2 0a1 1 0 0 1 1-1h.01a1 1 0 0 1 0 2h-.01a1 1 0 0 1-1-1Zm5.2 0a1 1 0 0 1 1-1h.01a1 1 0 0 1 0 2h-.01a1 1 0 0 1-1-1Zm5.2 0a1 1 0 0 1 1-1h.01a1 1 0 0 1 0 2h-.01a1 1 0 0 1-1-1Zm5.2 0a1 1 0 0 1 1-1h.01a1 1 0 0 1 0 2h-.01a1 1 0 0 1-1-1Zm5.2 0a1 1 0 0 1 1-1h.01a1 1 0 0 1 0 2h-.01a1 1 0 0 1-1-1Zm5.2 0a1 1 0 0 1 1-1h.01a1 1 0 0 1 0 2h-.01a1 1 0 0 1-1-1Zm5.2 0a1 1 0 0 1 1-1h.01a1 1 0 0 1 0 2h-.01a1 1 0 0 1-1-1Zm5.2 0a1 1 0 0 1 1-1h.01a1 1 0 0 1 0 2h-.01a1 1 0 0 1-1-1Zm5.2 0a1 1 0 0 1 1-1H314a1 1 0 0 1 0 2h-.005a1 1 0 0 1-1-1ZM313 137.526a1 1 0 0 1 1-1h.005a1 1 0 0 1 0 2H314a1 1 0 0 1-1-1Zm4.995 0a1 1 0 0 1 1-1h.01a1 1 0 0 1 0 2h-.01a1 1 0 0 1-1-1Zm5 0a1 1 0 0 1 1-1h.01a1 1 0 0 1 0 2h-.01a1 1 0 0 1-1-1Zm5 0a1 1 0 0 1 1-1h.01a1 1 0 0 1 0 2h-.01a1 1 0 0 1-1-1Zm5 0a1 1 0 0 1 1-1h.01a1 1 0 0 1 0 2h-.01a1 1 0 0 1-1-1Zm5 0a1 1 0 0 1 1-1h.01a1 1 0 0 1 0 2h-.01a1 1 0 0 1-1-1Zm5 0a1 1 0 0 1 1-1h.01a1 1 0 0 1 0 2h-.01a1 1 0 0 1-1-1Zm5 0a1 1 0 0 1 1-1h.01a1 1 0 0 1 0 2h-.01a1 1 0 0 1-1-1Zm5 0a1 1 0 0 1 1-1h.01a1 1 0 0 1 0 2h-.01a1 1 0 0 1-1-1Zm5 0a1 1 0 0 1 1-1h.01a1 1 0 0 1 0 2h-.01a1 1 0 0 1-1-1Zm5 0a1 1 0 0 1 1-1h.01a1 1 0 0 1 0 2h-.01a1 1 0 0 1-1-1Zm5 0a1 1 0 0 1 1-1H369a1 1 0 0 1 0 2h-.005a1 1 0 0 1-1-1ZM902.703 232.793a1 1 0 0 1 .707-.293h.005a1 1 0 0 1 .725 1.689 1 1 0 0 1-1.73-.684v-.005c0-.265.106-.52.293-.707Zm4.685.707a1 1 0 0 1 1-1h.01a1 1 0 0 1 0 2h-.01a1 1 0 0 1-1-1Zm4.983 0a1 1 0 0 1 1-1h.01a1 1 0 0 1 0 2h-.01a1 1 0 0 1-1-1Zm4.983 0a1 1 0 0 1 1-1h.01a1 1 0 0 1 0 2h-.01a1 1 0 0 1-1-1Zm4.983 0a1 1 0 0 1 1-1h.01a1 1 0 0 1 0 2h-.01a1 1 0 0 1-1-1Zm4.983 0a1 1 0 0 1 1-1h.01a1 1 0 0 1 0 2h-.01a1 1 0 0 1-1-1Zm4.983 0a1 1 0 0 1 1-1h.01a1 1 0 0 1 0 2h-.01a1 1 0 0 1-1-1Zm4.983 0a1 1 0 0 1 1-1h.01a1 1 0 0 1 0 2h-.01a1 1 0 0 1-1-1Zm4.983 0a1 1 0 0 1 1-1h.01a1 1 0 0 1 0 2h-.01a1 1 0 0 1-1-1Zm4.982 0a1 1 0 0 1 1-1h.01a1 1 0 1 1 0 2h-.01a1 1 0 0 1-1-1Zm4.983 0a1 1 0 0 1 1-1h.01a1 1 0 1 1 0 2h-.01a1 1 0 0 1-1-1Zm4.983 0a1 1 0 0 1 1-1h.01a1 1 0 1 1 0 2h-.01a1 1 0 0 1-1-1Zm4.983 0a1 1 0 0 1 1-1h.01a1 1 0 0 1 0 2h-.01a1 1 0 0 1-1-1Zm4.983 0a1 1 0 0 1 1-1h.01a1 1 0 0 1 0 2h-.01a1 1 0 0 1-1-1Zm4.983 0a1 1 0 0 1 1-1h.01a1 1 0 0 1 0 2h-.01a1 1 0 0 1-1-1Zm4.983 0a1 1 0 0 1 1-1h.01a1 1 0 0 1 0 2h-.01a1 1 0 0 1-1-1Zm4.983 0a1 1 0 0 1 1-1h.01a1 1 0 0 1 0 2h-.01a1 1 0 0 1-1-1Zm4.983 0a1 1 0 0 1 1-1h.01a1 1 0 0 1 0 2h-.01a1 1 0 0 1-1-1Zm4.983 0a1 1 0 0 1 1-1h.01a1 1 0 0 1 0 2h-.01a1 1 0 0 1-1-1Zm4.983 0a1 1 0 0 1 1-1h.009a1 1 0 1 1 0 2h-.009a1 1 0 0 1-1-1Zm4.979 0c0-.552.45-1 1-1h.01c.56 0 1 .448 1 1s-.44 1-1 1h-.01c-.55 0-1-.448-1-1Zm4.99 0c0-.552.44-1 1-1h.01c.55 0 1 .448 1 1s-.45 1-1 1h-.01c-.56 0-1-.448-1-1Zm4.98 0c0-.552.45-1 1-1h.01c.55 0 1 .448 1 1s-.45 1-1 1h-.01c-.55 0-1-.448-1-1Zm4.98 0c0-.552.45-1 1-1h.01c.55 0 1 .448 1 1s-.45 1-1 1h-.01c-.55 0-1-.448-1-1Zm4.99 0c0-.552.44-1 1-1 .55 0 1 .448 1 1s-.45 1-1 1c-.56 0-1-.448-1-1Zm-118.59 4.273a1 1 0 0 1 1 1v.01a1 1 0 1 1-2 0v-.01a1 1 0 0 1 1-1Zm0 5.277a1 1 0 0 1 1 1v.011a1 1 0 1 1-2 0v-.011a1 1 0 0 1 1-1Zm0 5.278a1 1 0 0 1 1 1v.011a1 1 0 1 1-2 0v-.011a1 1 0 0 1 1-1Zm0 5.278a1 1 0 0 1 1 1v.01a1 1 0 1 1-2 0v-.01a1 1 0 0 1 1-1Zm0 5.278a1 1 0 0 1 1 1v.01a1 1 0 1 1-2 0v-.01a1 1 0 0 1 1-1Zm0 5.277a1 1 0 0 1 1 1v.011a1 1 0 1 1-2 0v-.011a1 1 0 0 1 1-1Zm0 5.278a1 1 0 0 1 1 1v.011a1 1 0 1 1-2 0v-.011a1 1 0 0 1 1-1Zm0 5.278a1 1 0 0 1 1 1v.01a1 1 0 1 1-2 0v-.01a1 1 0 0 1 1-1Zm0 5.278a1 1 0 0 1 1 1V281a.997.997 0 0 1-1 1h-.005a1 1 0 0 1-.706-1.708.998.998 0 0 1 .711-.297ZM877.21 282h-.01a1 1 0 0 1 0-2h.01a1 1 0 1 1 0 2Zm4.231-1a1 1 0 0 1 1-1h.01a1 1 0 1 1 0 2h-.01a1 1 0 0 1-1-1Zm5.241 0a1 1 0 0 1 1-1h.01a1 1 0 1 1 0 2h-.01a1 1 0 0 1-1-1Zm5.241 0a1 1 0 0 1 1-1h.01a1 1 0 1 1 0 2h-.01a1 1 0 0 1-1-1Zm5.241 0a1 1 0 0 1 1-1h.01a1 1 0 1 1 0 2h-.01a1 1 0 0 1-1-1ZM850 281a1 1 0 0 1 1-1h.005a1 1 0 1 1 0 2H851a1 1 0 0 1-1-1Zm5.236 0a1 1 0 0 1 1-1h.01a1 1 0 1 1 0 2h-.01a1 1 0 0 1-1-1Zm5.241 0a1 1 0 0 1 1-1h.01a1 1 0 1 1 0 2h-.01a1 1 0 0 1-1-1Zm5.241 0a1 1 0 0 1 1-1h.01a1 1 0 1 1 0 2h-.01a1 1 0 0 1-1-1Zm5.241 0a1 1 0 0 1 1-1h.01a1 1 0 1 1 0 2h-.01a1 1 0 0 1-1-1Z" fill="#1A1A1A"/><path fill-rule="evenodd" clip-rule="evenodd" d="M261 281a1 1 0 0 0 1 1h.005a1 1 0 0 0 0-2H262a1 1 0 0 0-1 1Zm5.195 0a1 1 0 0 0 1 1h.01a1 1 0 0 0 0-2h-.01a1 1 0 0 0-1 1Zm5.2 0a1 1 0 0 0 1 1h.01a1 1 0 0 0 0-2h-.01a1 1 0 0 0-1 1Zm5.2 0a1 1 0 0 0 1 1h.01a1 1 0 0 0 0-2h-.01a1 1 0 0 0-1 1Zm5.2 0a1 1 0 0 0 1 1h.01a1 1 0 0 0 0-2h-.01a1 1 0 0 0-1 1Zm5.2 0a1 1 0 0 0 1 1h.01a1 1 0 0 0 0-2h-.01a1 1 0 0 0-1 1Zm5.2 0a1 1 0 0 0 1 1h.01a1 1 0 0 0 0-2h-.01a1 1 0 0 0-1 1Zm5.2 0a1 1 0 0 0 1 1h.01a1 1 0 0 0 0-2h-.01a1 1 0 0 0-1 1Zm5.2 0a1 1 0 0 0 1 1h.01a1 1 0 0 0 0-2h-.01a1 1 0 0 0-1 1Zm5.2 0a1 1 0 0 0 1 1h.01a1 1 0 0 0 0-2h-.01a1 1 0 0 0-1 1Zm5.2 0a1 1 0 0 0 1 1H314a1 1 0 0 0 1-1v-.005a1 1 0 0 0-1.692-.722.997.997 0 0 0-.313.727Zm1.005-3.942a1 1 0 0 0 1-1v-.01a1 1 0 1 0-2 0v.01a1 1 0 0 0 1 1Zm0-4.948a1 1 0 0 0 1-1v-.01a1 1 0 0 0-2 0v.01a1 1 0 0 0 1 1Zm0-4.947a1 1 0 0 0 1-1v-.01a1 1 0 0 0-2 0v.01a1 1 0 0 0 1 1Zm0-4.948a1 1 0 0 0 1-1v-.009a1 1 0 1 0-2 0v.009a1 1 0 0 0 1 1Zm0-4.947a1 1 0 0 0 1-1v-.01a1 1 0 0 0-2 0v.01a1 1 0 0 0 1 1Zm0-4.947a1 1 0 0 0 1-1v-.01a1 1 0 0 0-2 0v.01a1 1 0 0 0 1 1Zm0-4.948a1 1 0 0 0 1-1v-.01a1 1 0 0 0-2 0v.01a1 1 0 0 0 1 1Zm0-4.947a1 1 0 0 0 1-1v-.01a1 1 0 0 0-2 0v.01a1 1 0 0 0 1 1Zm0-4.947a1 1 0 0 0 1-1v-.01a1 1 0 1 0-2 0v.01a1 1 0 0 0 1 1Zm0-4.948a1 1 0 0 0 1-1v-.01a1 1 0 0 0-2 0v.01a1 1 0 0 0 1 1Zm0-4.947a1 1 0 0 0 1-1v-.01a1 1 0 0 0-2 0v.01a1 1 0 0 0 1 1Zm0-4.947a1 1 0 0 0 1-1v-.01a1 1 0 1 0-2 0v.01a1 1 0 0 0 1 1Zm0-4.948a1 1 0 0 0 1-1v-.01a1 1 0 0 0-2 0v.01a1 1 0 0 0 1 1Zm0-4.947a1 1 0 0 0 1-1v-.01a1 1 0 0 0-2 0v.01a1 1 0 0 0 1 1Zm0-4.948a1 1 0 0 0 1-1v-.009a1 1 0 1 0-2 0v.009a1 1 0 0 0 1 1Zm0-4.947a1 1 0 0 0 1-1v-.01a1 1 0 0 0-2 0v.01a1 1 0 0 0 1 1Zm0-4.947a1 1 0 0 0 1-1v-.01a1 1 0 0 0-2 0v.01a1 1 0 0 0 1 1Zm0-4.948a1 1 0 0 0 1-1v-.01a1 1 0 0 0-2 0v.01a1 1 0 0 0 1 1Zm0-4.947a1 1 0 0 0 1-1V187a1 1 0 0 0-2 0v.005a1 1 0 0 0 1 1Z" fill="#1A1A1A"/><rect x="369" y="246" width="478" height="70" rx="4" fill="#fff" stroke="#F7F3D4"/><path fill-rule="evenodd" clip-rule="evenodd" d="M421.072 265.094a.856.856 0 0 1 .382 1.162c-.436.837-.672 2.039-.762 3.274-.089 1.219-.03 2.373.061 3.052a.864.864 0 0 1-.755.968.875.875 0 0 1-.985-.742c-.107-.799-.169-2.07-.072-3.402.096-1.316.354-2.792.95-3.937a.885.885 0 0 1 1.181-.375Z" fill="#1A1A1A"/><path d="M415.985 278.758c.527-2.462-4.829-2.864-7.573-2.757-10.816.229-6.295 6.751-.306 7.479 2.464.299 7.22-1.644 7.879-4.722Z" fill="#CFEDFC"/><path d="M402.676 277.368c.304-.247.698-.47 1.192-.661l.154.476.785.978 1.149 1.025.883-.129 4.414-.45 4.64.488a4.272 4.272 0 0 1-.686 1.287c-1.373-.271-4.579-.351-6.32-.354-.466.538-.635 2.369-.671 3.463a9.44 9.44 0 0 1-1.541-.299c-.043-.855.257-2.078.475-2.757-1.365.074-2.809.737-3.605 1.199a5.98 5.98 0 0 1-.943-.919l1.769-.956c-.273-.136-1.136-1.476-1.695-2.391Z" fill="#00ACE6"/><path d="m415.066 281.729 1.59 1.057-7.185 10.457-1.727-1.149-1.326-1.923-.664-3.177 1.189-2.79 2.854.857 5.269-3.332Z" fill="#FFE100"/><path fill-rule="evenodd" clip-rule="evenodd" d="M413.619 274.78c2.131-4.521 7.317-3.412 9.766-1.783l-6.73 9.793-.773-.514c-.98 1.119-2.983 1.966-3.862 2.249.089 1.258 1.162 2.227 1.687 2.555l-2.211 3.217c-2.581-1.716-3.335-4.171-3.389-5.184l-.958-.051c-1.691 3.771.961 6.694 2.596 7.782L406.89 297l.496-3.902c-3.219-2.714-2.643-6.815-1.953-8.526-2.218-.433-6.067-3.599-5.344-6.289 1.259-4.684 9.521-4.606 13.53-3.503Zm2.366 3.965c.501-2.448-4.838-2.848-7.576-2.742-1.741.037-3.084.237-4.088.55.447 1.365 1.483 2.043 1.986 2.22 3.175-.71 7.296-.383 9.678-.028Zm-.201.647c-1.66-.212-4.134-.267-5.418-.264-1.743 1.171-1.967 3.145-1.818 4.384 2.361.04 6.187-1.579 7.236-4.12Zm-8.032 4.041c-.319-1.795.706-3.489 1.336-4.179-3.229.122-5.264 1.023-6.258 1.73 1.064 1.145 2.891 2.123 4.922 2.449Zm-5.487-3.19c.798-.479 2.228-.921 3.006-1.118-1.125-.827-1.616-1.691-1.79-2.25-1.759.832-1.959 2.134-1.216 3.368ZM431.698 272.159a.887.887 0 0 0-1.238.085c-.628.71-1.673 1.373-2.805 1.916-1.117.535-2.227.911-2.901 1.081a.862.862 0 0 0-.633 1.05.88.88 0 0 0 1.068.622c.793-.2 2.015-.616 3.236-1.202 1.205-.578 2.501-1.363 3.359-2.334a.853.853 0 0 0-.086-1.218Z" fill="#1A1A1A"/><path d="M420.709 281.901c2.127-1.398 4.501 3.341 5.423 5.886 3.815 9.959-4.023 8.263-6.94 3.067-1.201-2.138-1.141-7.204 1.517-8.953Z" fill="#CFEDFC"/><path d="M426.977 293.533c.119-.369.183-.812.179-1.335l-.507.037-1.214-.352-1.396-.667-.207-.855-1.22-4.197-2.19-4.054c-.377.304-.695.68-.958 1.106.767 1.153 2.037 4.05 2.689 5.638-.334.626-1.998 1.463-3.016 1.903l.052.098c.239.424.509.825.804 1.198.823-.28 1.864-1.009 2.423-1.461.44 1.273.352 2.838.213 3.737.41.227.821.403 1.218.519l.243-1.971c.23.198 1.815.487 2.887.656Z" fill="#00ACE6"/><path d="m418.245 283.842-1.59-1.058-7.186 10.457 1.726 1.148 2.309.494 3.244-.578 2.188-2.125-1.871-2.286 1.18-6.052Z" fill="#FFE100"/><path fill-rule="evenodd" clip-rule="evenodd" d="M425.339 282.576c3.47-3.63.492-7.951-1.957-9.58l-6.73 9.793.772.514c-.689 1.312-.742 3.456-.682 4.364-1.219.388-2.533-.23-3.038-.588l-2.211 3.218c2.581 1.716 5.177 1.49 6.153 1.162l.405.855c-2.927 2.95-6.673 1.618-8.308.53L406.887 297l3.495-1.908c3.76 1.928 7.414-.126 8.77-1.394 1.236 1.863 5.656 4.198 7.924 2.535 3.949-2.895.797-10.408-1.737-13.657Zm-4.622-.682c2.123-1.37 4.489 3.355 5.409 5.894.614 1.603.926 2.904 1.006 3.937-1.455.1-2.481-.592-2.835-.986-.513-3.163-2.358-6.804-3.58-8.845Zm-.535.424c.819 1.437 1.792 3.675 2.267 4.848-.454 2.027-2.233 2.967-3.457 3.294-.918-2.141-.817-6.237 1.19-8.142Zm-.819 8.839c1.812-.378 3.028-1.946 3.444-2.777 1.088 2.992.997 5.186.7 6.357-1.476-.545-3.08-1.847-4.144-3.58Zm5.053 3.82c.155-.907.039-2.377-.065-3.161 1.2.719 2.197.845 2.789.796-.129 1.916-1.283 2.583-2.724 2.365Z" fill="#1A1A1A"/><rect x="593.5" y="264.5" width="62" height="32" rx="2.5" fill="#F6F6F6"/><path d="M608.205 285v-7.584h2.604v-.936h-6.288v.936h2.592V285h1.092Zm4.03 0v-3.276c0-1.32.744-2.004 1.86-2.004.132 0 .228 0 .36.012v-1.008c-.12-.024-.24-.024-.324-.024-.864 0-1.548.48-1.908 1.332l-.012-1.2h-.996V285h1.02Zm4.867.144c.876 0 1.656-.396 2.064-1.104l.024.96h.96v-4.188c0-1.26-.864-2.124-2.376-2.124-1.452 0-2.364.72-2.496 1.884h.996c.096-.648.66-1.056 1.488-1.056.78 0 1.392.384 1.392 1.248v.516l-2.568.384c-.996.144-1.536.816-1.536 1.716 0 1.032.78 1.764 2.052 1.764Zm.144-.84c-.78 0-1.176-.384-1.176-.96 0-.504.264-.84.852-.912l2.232-.336v.624c0 .912-.9 1.584-1.908 1.584Zm7.247.84c1.488 0 2.436-.828 2.688-2.136h-1.02c-.18.768-.72 1.272-1.668 1.272-1.188 0-1.824-.816-1.824-2.256v-.216c0-1.428.636-2.256 1.812-2.256.96 0 1.464.468 1.644 1.248h1.02c-.192-1.272-1.14-2.112-2.64-2.112-1.848 0-2.892 1.272-2.892 3.12v.216c0 1.836 1.044 3.12 2.88 3.12Zm5.145-7.548v-1.62h-1.08v1.62h1.08Zm-.036 7.404v-6.168h-1.02V285h1.02Zm2.907 0v-3.48c0-1.212.684-1.944 1.704-1.944.996 0 1.416.588 1.416 1.692V285h1.008v-3.984c0-1.416-.66-2.328-2.136-2.328-.984 0-1.632.492-1.992 1.152l-.024-1.008h-.996V285h1.02Zm8.461 2.184c1.848 0 2.868-1.008 2.868-2.508v-5.844h-.936l-.036 1.092c-.3-.636-1.044-1.236-2.124-1.236-1.596 0-2.64 1.2-2.64 2.952v.312c0 1.68 1.032 2.94 2.652 2.94 1.032 0 1.74-.516 2.064-1.128v.996c0 1.116-.756 1.62-1.812 1.62-.984 0-1.512-.336-1.608-.96h-1.092c.12 1.044 1.08 1.764 2.664 1.764Zm-.024-3.144c-1.14 0-1.8-.84-1.8-2.088v-.312c0-1.296.648-2.088 1.8-2.088 1.248 0 1.92.78 1.92 2.088v.312c0 1.248-.684 2.088-1.92 2.088Z" fill="#1A1A1A"/><rect x="593.5" y="264.5" width="62" height="32" rx="2.5" stroke="#E6E6E6"/><rect x="666.5" y="264.5" width="68" height="32" rx="2.5" fill="#F6F6F6"/><path d="M679.462 285v-3.42h2.256c1.668 0 2.772-.852 2.772-2.448v-.216c0-1.584-1.104-2.436-2.772-2.436h-3.336V285h1.08Zm0-7.584h2.208c1.044 0 1.716.48 1.716 1.5v.216c0 1.032-.672 1.512-1.716 1.512h-2.208v-3.228Zm7.449 7.584v-3.276c0-1.32.744-2.004 1.86-2.004.132 0 .228 0 .36.012v-1.008c-.12-.024-.24-.024-.324-.024-.864 0-1.548.48-1.908 1.332l-.012-1.2h-.996V285h1.02Zm5.815.144c1.8 0 2.94-1.236 2.94-3.12v-.216c0-1.884-1.14-3.12-2.94-3.12s-2.952 1.236-2.952 3.12v.216c0 1.884 1.152 3.12 2.952 3.12Zm0-.864c-1.236 0-1.908-.828-1.908-2.256v-.216c0-1.428.672-2.256 1.908-2.256 1.224 0 1.896.828 1.896 2.256v.216c0 1.428-.672 2.256-1.896 2.256Zm5.962.72v-5.352h1.752v-.816h-1.752v-1.152c0-.672.216-.996 1.02-.996.24 0 .564.06.768.12v-.852a4.522 4.522 0 0 0-.924-.12c-1.236 0-1.884.564-1.884 1.704v1.296h-1.236v.816h1.236V285h1.02Zm4.02-7.404v-1.62h-1.08v1.62h1.08Zm-.036 7.404v-6.168h-1.02V285h1.02Zm2.907 0v-9.024h-1.02V285h1.02Zm2.942-7.404v-1.62h-1.08v1.62h1.08Zm-.036 7.404v-6.168h-1.02V285h1.02Zm2.907 0v-3.48c0-1.212.684-1.944 1.704-1.944.996 0 1.416.588 1.416 1.692V285h1.008v-3.984c0-1.416-.66-2.328-2.136-2.328-.984 0-1.632.492-1.992 1.152l-.024-1.008h-.996V285h1.02Zm8.46 2.184c1.848 0 2.868-1.008 2.868-2.508v-5.844h-.936l-.036 1.092c-.3-.636-1.044-1.236-2.124-1.236-1.596 0-2.64 1.2-2.64 2.952v.312c0 1.68 1.032 2.94 2.652 2.94 1.032 0 1.74-.516 2.064-1.128v.996c0 1.116-.756 1.62-1.812 1.62-.984 0-1.512-.336-1.608-.96h-1.092c.12 1.044 1.08 1.764 2.664 1.764Zm-.024-3.144c-1.14 0-1.8-.84-1.8-2.088v-.312c0-1.296.648-2.088 1.8-2.088 1.248 0 1.92.78 1.92 2.088v.312c0 1.248-.684 2.088-1.92 2.088Z" fill="#1A1A1A"/><rect x="666.5" y="264.5" width="68" height="32" rx="2.5" stroke="#E6E6E6"/><rect x="745.5" y="264.5" width="82" height="32" rx="2.5" fill="#F6F6F6"/><path d="M758.249 285v-7.224l2.688 7.224h.996l2.676-7.224V285h1.068v-8.52h-1.608l-2.628 7.188-2.628-7.188h-1.632V285h1.068Zm12.021.144c1.8 0 2.94-1.236 2.94-3.12v-.216c0-1.884-1.14-3.12-2.94-3.12s-2.952 1.236-2.952 3.12v.216c0 1.884 1.152 3.12 2.952 3.12Zm0-.864c-1.236 0-1.908-.828-1.908-2.256v-.216c0-1.428.672-2.256 1.908-2.256 1.224 0 1.896.828 1.896 2.256v.216c0 1.428-.672 2.256-1.896 2.256Zm5.483.72v-3.48c0-1.212.684-1.944 1.704-1.944.996 0 1.416.588 1.416 1.692V285h1.008v-3.984c0-1.416-.66-2.328-2.136-2.328-.984 0-1.632.492-1.992 1.152l-.024-1.008h-.996V285h1.02Zm6.997-7.404v-1.62h-1.08v1.62h1.08Zm-.036 7.404v-6.168h-1.02V285h1.02Zm4.25.144c.288 0 .672-.06.924-.12v-.852c-.204.06-.528.12-.768.12-.804 0-1.02-.324-1.02-.996v-3.648h1.752v-.816H786.1v-1.896h-1.02v1.896h-1.236v.816h1.236v3.792c0 1.14.648 1.704 1.884 1.704Zm4.81 0c1.8 0 2.94-1.236 2.94-3.12v-.216c0-1.884-1.14-3.12-2.94-3.12s-2.952 1.236-2.952 3.12v.216c0 1.884 1.152 3.12 2.952 3.12Zm0-.864c-1.236 0-1.908-.828-1.908-2.256v-.216c0-1.428.672-2.256 1.908-2.256 1.224 0 1.896.828 1.896 2.256v.216c0 1.428-.672 2.256-1.896 2.256Zm5.483.72v-3.276c0-1.32.744-2.004 1.86-2.004.132 0 .228 0 .36.012v-1.008c-.12-.024-.24-.024-.324-.024-.864 0-1.548.48-1.908 1.332l-.012-1.2h-.996V285h1.02Zm4.465-7.404v-1.62h-1.08v1.62h1.08Zm-.036 7.404v-6.168h-1.02V285h1.02Zm2.907 0v-3.48c0-1.212.684-1.944 1.704-1.944.996 0 1.416.588 1.416 1.692V285h1.008v-3.984c0-1.416-.66-2.328-2.136-2.328-.984 0-1.632.492-1.992 1.152l-.024-1.008h-.996V285h1.02Zm8.461 2.184c1.848 0 2.868-1.008 2.868-2.508v-5.844h-.936l-.036 1.092c-.3-.636-1.044-1.236-2.124-1.236-1.596 0-2.64 1.2-2.64 2.952v.312c0 1.68 1.032 2.94 2.652 2.94 1.032 0 1.74-.516 2.064-1.128v.996c0 1.116-.756 1.62-1.812 1.62-.984 0-1.512-.336-1.608-.96h-1.092c.12 1.044 1.08 1.764 2.664 1.764Zm-.024-3.144c-1.14 0-1.8-.84-1.8-2.088v-.312c0-1.296.648-2.088 1.8-2.088 1.248 0 1.92.78 1.92 2.088v.312c0 1.248-.684 2.088-1.92 2.088Z" fill="#1A1A1A"/><rect x="745.5" y="264.5" width="82" height="32" rx="2.5" stroke="#E6E6E6"/><path d="M450 269v24" stroke="#E6E6E6" stroke-linecap="round"/><path d="m477.344 287-4.32-11.36h-2.56l-4.32 11.36h2.4l.896-2.512h4.544l.88 2.512h2.48Zm-5.632-8.944 1.616 4.592h-3.248l1.632-4.592Zm9.132 11.664v-3.888c.448.768 1.344 1.376 2.512 1.376 2.208 0 3.584-1.792 3.584-4.24v-.208c0-2.432-1.328-4.224-3.536-4.224-1.344 0-2.272.736-2.656 1.472l-.064-1.264h-2.096v10.976h2.256Zm1.872-4.24c-1.28 0-1.952-.896-1.952-2.512v-.208c0-1.616.672-2.512 1.952-2.512 1.28 0 1.952.896 1.952 2.512v.208c0 1.616-.672 2.512-1.952 2.512Zm8.285 4.24v-3.888c.448.768 1.344 1.376 2.512 1.376 2.208 0 3.584-1.792 3.584-4.24v-.208c0-2.432-1.328-4.224-3.536-4.224-1.344 0-2.272.736-2.656 1.472l-.064-1.264h-2.096v10.976h2.256Zm1.872-4.24c-1.28 0-1.952-.896-1.952-2.512v-.208c0-1.616.672-2.512 1.952-2.512 1.28 0 1.952.896 1.952 2.512v.208c0 1.616-.672 2.512-1.952 2.512Zm8.268 1.52v-12.032h-2.24V287h2.24Zm4.517-9.728v-2.304h-2.368v2.304h2.368Zm-.064 9.728v-8.256h-2.24V287h2.24Zm5.941.208c2.16 0 3.584-1.184 3.84-3.152h-2.192c-.176.832-.624 1.392-1.68 1.392-1.232 0-1.792-.88-1.792-2.48v-.208c0-1.584.56-2.464 1.792-2.464 1.056 0 1.488.544 1.664 1.376h2.208c-.272-1.952-1.68-3.136-3.84-3.136-2.576 0-4.128 1.696-4.128 4.224v.208c0 2.528 1.552 4.24 4.128 4.24Zm7.811 0c1.216 0 2.16-.576 2.672-1.488l.08 1.28h2.063v-5.632c0-1.728-1.311-2.832-3.535-2.832-2.144 0-3.536.96-3.728 2.608h2.112c.144-.608.656-.912 1.568-.912.976 0 1.424.416 1.424 1.104v.48l-3.04.432c-1.504.208-2.4 1.04-2.4 2.448 0 1.456 1.12 2.512 2.784 2.512Zm.672-1.68c-.816 0-1.296-.352-1.296-.944 0-.576.352-.864 1.04-.96l2.24-.304v.656c0 .912-.896 1.552-1.984 1.552Zm9.717 1.68c.48 0 1.088-.096 1.488-.192v-1.728c-.224.064-.592.16-.992.16-.88 0-1.184-.304-1.184-1.024v-4.048h2.144v-1.632h-2.144v-2.624h-2.24v2.624h-1.536v1.632h1.536v4.24c0 1.696.944 2.592 2.928 2.592Zm5.532-9.936v-2.304h-2.368v2.304h2.368Zm-.064 9.728v-8.256h-2.24V287h2.24Zm6.054.208c2.56 0 4.24-1.728 4.24-4.24v-.192c0-2.512-1.68-4.24-4.24-4.24-2.56 0-4.24 1.728-4.24 4.224v.208c0 2.512 1.68 4.24 4.24 4.24Zm0-1.744c-1.312 0-1.968-.88-1.968-2.496v-.208c0-1.6.656-2.48 1.968-2.48 1.312 0 1.968.88 1.968 2.496v.192c0 1.616-.656 2.496-1.968 2.496Zm8.29 1.536v-4.576c0-1.312.704-2.08 1.744-2.08 1.072 0 1.488.704 1.488 1.904V287h2.224v-5.312c0-1.856-.816-3.152-2.864-3.152-1.376 0-2.208.72-2.608 1.488l-.064-1.28h-2.16V287h2.24Z" fill="#1A1A1A"/><rect x="958" y="246" width="230" height="70" rx="4" fill="#fff" stroke="#D9F2D9"/><path fill-rule="evenodd" clip-rule="evenodd" d="M1011.07 265.094c.43.217.6.737.38 1.162-.43.837-.67 2.039-.76 3.274-.09 1.219-.03 2.373.06 3.052a.857.857 0 0 1-.75.968.883.883 0 0 1-.99-.742c-.1-.799-.17-2.07-.07-3.402.1-1.316.36-2.792.95-3.937a.884.884 0 0 1 1.18-.375Z" fill="#1A1A1A"/><path d="M1005.98 278.758c.53-2.462-4.82-2.864-7.568-2.757-10.816.229-6.295 6.751-.306 7.479 2.464.299 7.224-1.644 7.874-4.722Z" fill="#CFEDFC"/><path d="M992.676 277.368c.304-.247.698-.47 1.192-.661l.154.476.785.978 1.149 1.025.883-.129 4.411-.45 4.64.488a4.21 4.21 0 0 1-.68 1.287c-1.38-.271-4.58-.351-6.323-.354-.466.538-.635 2.369-.671 3.463a9.44 9.44 0 0 1-1.541-.299c-.043-.855.257-2.078.475-2.757-1.365.074-2.809.737-3.605 1.199a5.98 5.98 0 0 1-.943-.919l1.769-.956c-.273-.136-1.136-1.476-1.695-2.391Z" fill="#00ACE6"/><path d="m1005.07 281.729 1.59 1.057-7.189 10.457-1.727-1.149-1.326-1.923-.664-3.177 1.189-2.79 2.854.857 5.273-3.332Z" fill="#FFE100"/><path fill-rule="evenodd" clip-rule="evenodd" d="M1003.62 274.78c2.13-4.521 7.32-3.412 9.76-1.783l-6.73 9.793-.77-.514c-.98 1.119-2.98 1.966-3.86 2.249.09 1.258 1.16 2.227 1.69 2.555l-2.21 3.217c-2.585-1.716-3.339-4.171-3.393-5.184l-.958-.051c-1.691 3.771.961 6.694 2.596 7.782L996.89 297l.496-3.902c-3.219-2.714-2.643-6.815-1.953-8.526-2.218-.433-6.067-3.599-5.344-6.289 1.259-4.684 9.521-4.606 13.531-3.503Zm2.36 3.965c.51-2.448-4.83-2.848-7.571-2.742-1.741.037-3.084.237-4.088.55.447 1.365 1.483 2.043 1.986 2.22 3.175-.71 7.293-.383 9.673-.028Zm-.2.647c-1.66-.212-4.13-.267-5.41-.264-1.747 1.171-1.971 3.145-1.822 4.384 2.362.04 6.192-1.579 7.232-4.12Zm-8.028 4.041c-.319-1.795.706-3.489 1.336-4.179-3.229.122-5.264 1.023-6.258 1.73 1.064 1.145 2.891 2.123 4.922 2.449Zm-5.487-3.19c.798-.479 2.228-.921 3.006-1.118-1.125-.827-1.616-1.691-1.79-2.25-1.759.832-1.959 2.134-1.216 3.368ZM1021.7 272.159a.89.89 0 0 0-1.24.085c-.63.71-1.67 1.373-2.8 1.916-1.12.535-2.23.911-2.91 1.081a.86.86 0 0 0-.63 1.05c.12.462.6.74 1.07.622.79-.2 2.01-.616 3.23-1.202 1.21-.578 2.51-1.363 3.36-2.334a.856.856 0 0 0-.08-1.218Z" fill="#1A1A1A"/><path d="M1010.71 281.901c2.12-1.398 4.5 3.341 5.42 5.886 3.81 9.959-4.02 8.263-6.94 3.067-1.2-2.138-1.14-7.204 1.52-8.953Z" fill="#CFEDFC"/><path d="M1016.98 293.533c.12-.369.18-.812.18-1.335l-.51.037-1.22-.352-1.39-.667-.21-.855-1.22-4.197-2.19-4.054c-.38.304-.69.68-.96 1.106.77 1.153 2.04 4.05 2.69 5.638-.33.626-2 1.463-3.01 1.903.01.034.03.066.05.098.24.424.51.825.8 1.198.83-.28 1.87-1.009 2.43-1.461.44 1.273.35 2.838.21 3.737.41.227.82.403 1.22.519l.24-1.971c.23.198 1.82.487 2.89.656Z" fill="#00ACE6"/><path d="m1008.24 283.842-1.59-1.058-7.181 10.457 1.731 1.148 2.3.494 3.25-.578 2.19-2.125-1.87-2.286 1.17-6.052Z" fill="#FFE100"/><path fill-rule="evenodd" clip-rule="evenodd" d="M1015.34 282.575c3.47-3.63.49-7.951-1.96-9.58l-6.73 9.793.78.514c-.69 1.312-.75 3.456-.69 4.365-1.22.387-2.53-.231-3.03-.589l-2.22 3.218c2.59 1.716 5.18 1.49 6.16 1.162l.4.855c-2.92 2.95-6.67 1.618-8.305.53l-2.856 4.156 3.491-1.908c3.76 1.928 7.42-.126 8.77-1.394 1.24 1.863 5.66 4.198 7.93 2.535 3.95-2.895.79-10.408-1.74-13.657Zm-4.62-.682c2.12-1.37 4.49 3.355 5.41 5.894.61 1.603.92 2.904 1 3.937-1.45.1-2.48-.592-2.83-.986-.51-3.163-2.36-6.804-3.58-8.845Zm-.54.424c.82 1.437 1.8 3.675 2.27 4.848-.45 2.027-2.23 2.967-3.46 3.294-.91-2.141-.81-6.237 1.19-8.142Zm-.82 8.839c1.82-.378 3.03-1.945 3.45-2.777 1.09 2.992 1 5.186.7 6.357-1.48-.545-3.08-1.847-4.15-3.58Zm5.06 3.82c.15-.907.04-2.377-.07-3.161 1.2.719 2.2.845 2.79.796-.13 1.916-1.28 2.583-2.72 2.365Z" fill="#1A1A1A"/><path d="M1040 269v24" stroke="#E6E6E6" stroke-linecap="round"/><path d="M1059.55 287v-3.808l1.03-1.136 3.37 4.944h2.71l-4.52-6.496 4.34-4.864h-2.72l-4.21 4.832v-4.832h-2.37V287h2.37Zm11.35.208c2.12 0 3.56-1.056 3.96-2.72h-2.22c-.21.576-.75 1.008-1.74 1.008-1.24 0-1.96-.704-2.05-2.144h6.06c.15-2.88-1.23-4.816-4.01-4.816-2.6 0-4.21 1.712-4.21 4.224v.208c0 2.544 1.58 4.24 4.21 4.24Zm-2.02-5.264c.21-1.168.86-1.744 2-1.744 1.09 0 1.68.672 1.79 1.744h-3.79Zm10.09 5.056v-3.984c0-1.456.78-2.256 2.27-2.256.21 0 .47.016.63.032v-2.144a2.57 2.57 0 0 0-.5-.048c-1.22 0-2.03.752-2.43 1.76l-.07-1.616h-2.14V287h2.24Zm6.67 0v-4.576c0-1.312.7-2.08 1.74-2.08 1.08 0 1.49.704 1.49 1.904V287h2.23v-5.312c0-1.856-.82-3.152-2.87-3.152-1.37 0-2.21.72-2.61 1.488l-.06-1.28h-2.16V287h2.24Zm11.4.208c2.13 0 3.57-1.056 3.97-2.72h-2.23c-.21.576-.75 1.008-1.74 1.008-1.23 0-1.95-.704-2.05-2.144h6.06c.15-2.88-1.23-4.816-4.01-4.816-2.59 0-4.21 1.712-4.21 4.224v.208c0 2.544 1.58 4.24 4.21 4.24Zm-2.02-5.264c.21-1.168.87-1.744 2-1.744 1.09 0 1.68.672 1.79 1.744h-3.79Zm10.09 5.056v-12.032h-2.24V287h2.24Zm9.63.208c2.68 0 4.54-1.376 4.54-3.472v-.16c0-1.888-1.36-2.864-4.06-3.328-2.26-.368-2.58-.784-2.58-1.488v-.096c0-.8.62-1.376 1.87-1.376 1.28 0 2.07.544 2.24 1.552h2.34c-.27-2.224-1.97-3.408-4.53-3.408-2.54 0-4.29 1.36-4.29 3.344v.16c0 1.776 1.07 2.752 3.83 3.264 2.12.4 2.81.832 2.81 1.616v.144c0 .88-.96 1.36-2.13 1.36-1.42 0-2.35-.576-2.56-1.792h-2.33c.22 2.304 1.95 3.68 4.85 3.68Zm9.6 0c.48 0 1.09-.096 1.49-.192v-1.728c-.22.064-.59.16-.99.16-.88 0-1.18-.304-1.18-1.024v-4.048h2.14v-1.632h-2.14v-2.624h-2.24v2.624h-1.54v1.632h1.54v4.24c0 1.696.94 2.592 2.92 2.592Zm5.54 0c1.21 0 2.16-.576 2.67-1.488l.08 1.28h2.06v-5.632c0-1.728-1.31-2.832-3.53-2.832-2.15 0-3.54.96-3.73 2.608h2.11c.14-.608.66-.912 1.57-.912.97 0 1.42.416 1.42 1.104v.48l-3.04.432c-1.5.208-2.4 1.04-2.4 2.448 0 1.456 1.12 2.512 2.79 2.512Zm.67-1.68c-.82 0-1.3-.352-1.3-.944 0-.576.35-.864 1.04-.96l2.24-.304v.656c0 .912-.89 1.552-1.98 1.552Zm10 1.68c2.16 0 3.58-1.184 3.84-3.152h-2.19c-.18.832-.63 1.392-1.68 1.392-1.23 0-1.79-.88-1.79-2.48v-.208c0-1.584.56-2.464 1.79-2.464 1.05 0 1.49.544 1.66 1.376h2.21c-.27-1.952-1.68-3.136-3.84-3.136-2.58 0-4.13 1.696-4.13 4.224v.208c0 2.528 1.55 4.24 4.13 4.24Zm7.67-.208v-2.944l.78-.784 2.39 3.728h2.51l-3.31-5.088 3.18-3.168h-2.62l-2.93 2.96v-6.736h-2.24V287h2.24Z" fill="#1A1A1A"/><path fill-rule="evenodd" clip-rule="evenodd" d="M850 140a1 1 0 0 1 1-1h.005a1 1 0 0 1 0 2H851a1 1 0 0 1-1-1Zm4.945 0a1 1 0 0 1 1-1h.01a1 1 0 0 1 0 2h-.01a1 1 0 0 1-1-1Zm4.95 0a1 1 0 0 1 1-1h.01a1 1 0 0 1 0 2h-.01a1 1 0 0 1-1-1Zm4.95 0a1 1 0 0 1 1-1h.01a1 1 0 0 1 0 2h-.01a1 1 0 0 1-1-1Zm4.95 0a1 1 0 0 1 1-1h.01a1 1 0 0 1 0 2h-.01a1 1 0 0 1-1-1Zm4.95 0a1 1 0 0 1 1-1h.01a1 1 0 0 1 0 2h-.01a1 1 0 0 1-1-1Zm4.95 0a1 1 0 0 1 1-1h.01a1 1 0 0 1 0 2h-.01a1 1 0 0 1-1-1Zm4.95 0a1 1 0 0 1 1-1h.01a1 1 0 0 1 0 2h-.01a1 1 0 0 1-1-1Zm4.95 0a1 1 0 0 1 1-1h.01a1 1 0 0 1 0 2h-.01a1 1 0 0 1-1-1Zm4.95 0a1 1 0 0 1 1-1h.01a1 1 0 0 1 0 2h-.01a1 1 0 0 1-1-1Zm4.95 0a1 1 0 0 1 1-1h.01a1 1 0 0 1 0 2h-.01a1 1 0 0 1-1-1Zm4.95 0a1 1 0 0 1 1-1h.01a1 1 0 0 1 0 2h-.01a1 1 0 0 1-1-1Zm4.95 0a1 1 0 0 1 1-1h.01a1 1 0 0 1 0 2h-.01a1 1 0 0 1-1-1Zm4.95 0a1 1 0 0 1 1-1h.01a1 1 0 0 1 0 2h-.01a1 1 0 0 1-1-1Zm4.95 0a1 1 0 0 1 1-1h.01a1 1 0 0 1 0 2h-.01a1 1 0 0 1-1-1Zm4.95 0a1 1 0 0 1 1-1h.01a1 1 0 0 1 0 2h-.01a1 1 0 0 1-1-1Zm4.95 0a1 1 0 0 1 1-1h.01a1 1 0 0 1 0 2h-.01a1 1 0 0 1-1-1Zm4.95 0a1 1 0 0 1 1-1h.01a1 1 0 0 1 0 2h-.01a1 1 0 0 1-1-1Zm4.95 0a1 1 0 0 1 1-1h.01a1 1 0 0 1 0 2h-.01a1 1 0 0 1-1-1Zm4.95 0a1 1 0 0 1 1-1h.01a1 1 0 0 1 0 2h-.01a1 1 0 0 1-1-1Zm4.95 0a1 1 0 0 1 1-1H950a1 1 0 0 1 0 2h-.005a1 1 0 0 1-1-1Z" fill="#1A1A1A"/><path opacity=".1" d="M1067 144h12M1067 188h12M1124 172v-12M1023 172v-12" stroke="#E6E6E6"/><path fill-rule="evenodd" clip-rule="evenodd" d="M1023 240c-.55 0-1-.448-1-1v-.005c0-.552.45-1 1-1s1 .448 1 1V239c0 .552-.45 1-1 1Zm0-5.495c-.55 0-1-.448-1-1v-.01c0-.552.45-1 1-1s1 .448 1 1v.01c0 .552-.45 1-1 1Zm0-5.5c-.55 0-1-.448-1-1v-.01c0-.552.45-1 1-1s1 .448 1 1v.01c0 .552-.45 1-1 1Zm0-5.5c-.55 0-1-.448-1-1v-.01c0-.552.45-1 1-1s1 .448 1 1v.01c0 .552-.45 1-1 1Zm0-5.5c-.55 0-1-.448-1-1v-.01c0-.552.45-1 1-1s1 .448 1 1v.01c0 .552-.45 1-1 1Zm0-5.5c-.55 0-1-.448-1-1v-.01c0-.552.45-1 1-1s1 .448 1 1v.01c0 .552-.45 1-1 1Zm0-5.5c-.55 0-1-.448-1-1V206c0-.552.45-1 1-1s1 .448 1 1v.005c0 .552-.45 1-1 1Z" fill="#1A1A1A"/><path d="M101.104 99v-8.928L106.528 99h2.096V87.64h-1.776v8.72l-5.328-8.72h-2.224V99h1.808Zm13.634.208c2.016 0 3.392-1.04 3.792-2.704h-1.744c-.256.784-.912 1.296-2.048 1.296-1.424 0-2.256-.88-2.336-2.544h6.176c.144-2.832-1.168-4.688-3.856-4.688-2.496 0-4.032 1.696-4.032 4.192V95c0 2.496 1.504 4.208 4.048 4.208Zm-2.288-5.2c.192-1.344.96-2.064 2.272-2.064 1.264 0 1.968.784 2.08 2.064h-4.352Zm11.188 5.2c.416 0 .976-.096 1.344-.192v-1.408c-.24.08-.656.16-1.008.16-.976 0-1.28-.368-1.28-1.184v-4.496h2.24V90.76h-2.24v-2.576h-1.76v2.576h-1.6v1.328h1.6v4.688c0 1.6.896 2.432 2.704 2.432Zm6.563-.208 1.744-6.24 1.776 6.24h1.84l2.512-8.24h-1.76l-1.744 6.352-1.744-6.352h-1.728l-1.728 6.336-1.712-6.336h-1.792l2.48 8.24h1.856Zm12.771.208c2.48 0 4.08-1.696 4.08-4.208v-.24c0-2.512-1.6-4.192-4.08-4.192-2.464 0-4.064 1.68-4.064 4.192V95c0 2.512 1.6 4.208 4.064 4.208Zm0-1.424c-1.488 0-2.272-1.008-2.272-2.784v-.24c0-1.776.784-2.768 2.272-2.768 1.504 0 2.288.992 2.288 2.768V95c0 1.776-.784 2.784-2.288 2.784ZM150.741 99v-4.192c0-1.632.896-2.48 2.384-2.48.192 0 .384.016.544.032v-1.712a2.25 2.25 0 0 0-.448-.048c-1.184 0-2.048.704-2.496 1.76l-.048-1.6h-1.696V99h1.76Zm6.328 0v-3.04l.816-.816 2.64 3.856h2.016l-3.392-4.944 3.28-3.296h-2.128l-3.232 3.296v-7.088h-1.76V99h1.76Zm8.579-9.808v-2.224h-1.856v2.224h1.856ZM165.6 99v-8.24h-1.76V99h1.76Zm4.125 0v-4.608c0-1.472.816-2.368 2.032-2.368 1.2 0 1.696.752 1.696 2.096V99h1.744v-5.312c0-1.872-.848-3.12-2.848-3.12-1.328 0-2.192.688-2.624 1.504l-.064-1.312h-1.696V99h1.76Zm11.276 2.928c2.608 0 4.032-1.328 4.032-3.456V90.76h-1.632l-.048 1.36c-.416-.784-1.36-1.552-2.768-1.552-2.161 0-3.52 1.68-3.52 3.968v.304c0 2.288 1.376 4 3.568 4 1.28 0 2.208-.64 2.64-1.424v1.248c0 1.312-.8 1.968-2.176 1.968-1.2 0-1.776-.384-1.904-1.088h-1.92c.192 1.376 1.456 2.384 3.728 2.384Zm.064-4.512c-1.408 0-2.208-.992-2.208-2.576v-.304c0-1.6.784-2.576 2.208-2.576 1.472 0 2.272.96 2.272 2.576v.304c0 1.584-.816 2.576-2.272 2.576Z" fill="#1A1A1A"/><circle cx="258" cy="187" r="4" fill="#fff" stroke="#1A1A1A"/><circle cx="258" cy="93" r="4" fill="#fff" stroke="#1A1A1A"/><circle cx="958" cy="140" r="4" fill="#fff" stroke="#1A1A1A"/><circle cx="1023" cy="246" r="4" fill="#fff" stroke="#1A1A1A"/><circle cx="258" cy="281" r="4" fill="#fff" stroke="#1A1A1A"/><defs><linearGradient id="b" x1="451.5" y1="52.5" x2="475" y2="179" gradientUnits="userSpaceOnUse"><stop stop-color="#FE9"/><stop offset="1" stop-color="#FE9" stop-opacity="0"/></linearGradient><linearGradient id="d" x1="702.5" y1="52.5" x2="726" y2="179" gradientUnits="userSpaceOnUse"><stop stop-color="#FE9"/><stop offset="1" stop-color="#FE9" stop-opacity="0"/></linearGradient><filter id="a" x="357" y="50" width="251" height="188" filterUnits="userSpaceOnUse" color-interpolation-filters="sRGB"><feFlood flood-opacity="0" result="BackgroundImageFix"/><feColorMatrix in="SourceAlpha" values="0 0 0 0 0 0 0 0 0 0 0 0 0 0 0 0 0 0 127 0" result="hardAlpha"/><feOffset dy="4"/><feGaussianBlur stdDeviation="6"/><feComposite in2="hardAlpha" operator="out"/><feColorMatrix values="0 0 0 0 0 0 0 0 0 0 0 0 0 0 0 0 0 0 0.3 0"/><feBlend in2="BackgroundImageFix" result="effect1_dropShadow_2434_50273"/><feBlend in="SourceGraphic" in2="effect1_dropShadow_2434_50273" result="shape"/></filter><filter id="c" x="608" y="50" width="251" height="188" filterUnits="userSpaceOnUse" color-interpolation-filters="sRGB"><feFlood flood-opacity="0" result="BackgroundImageFix"/><feColorMatrix in="SourceAlpha" values="0 0 0 0 0 0 0 0 0 0 0 0 0 0 0 0 0 0 127 0" result="hardAlpha"/><feOffset dy="4"/><feGaussianBlur stdDeviation="6"/><feComposite in2="hardAlpha" operator="out"/><feColorMatrix values="0 0 0 0 0 0 0 0 0 0 0 0 0 0 0 0 0 0 0.3 0"/><feBlend in2="BackgroundImageFix" result="effect1_dropShadow_2434_50273"/><feBlend in="SourceGraphic" in2="effect1_dropShadow_2434_50273" result="shape"/></filter></defs></svg>